<?xml version="1.0" encoding="UTF-8" standalone="no"?>
<svg
   xmlns:dc="http://purl.org/dc/elements/1.1/"
   xmlns:cc="http://creativecommons.org/ns#"
   xmlns:rdf="http://www.w3.org/1999/02/22-rdf-syntax-ns#"
   xmlns:svg="http://www.w3.org/2000/svg"
   xmlns="http://www.w3.org/2000/svg"
   viewBox="0 0 784.97333 251.01334"
   height="251.01334"
   width="784.97333"
   xml:space="preserve"
   id="svg2"
   version="1.1"><metadata
     id="metadata8"><rdf:RDF><cc:Work
         rdf:about=""><dc:format>image/svg+xml</dc:format><dc:type
           rdf:resource="http://purl.org/dc/dcmitype/StillImage" /></cc:Work></rdf:RDF></metadata><defs
     id="defs6"><clipPath
       id="clipPath128"
       clipPathUnits="userSpaceOnUse"><path
         id="path126"
         d="m 485.281,798.941 187.684,-32.972 219.258,32.972 184.367,129.258 -2.36,456.381 -27.3,25.55 -324.473,-8.99 -237.176,-169.59 z" /></clipPath><clipPath
       id="clipPath134"
       clipPathUnits="userSpaceOnUse"><path
         id="path132"
         d="M 935.582,1466.55 H 1078.05 V 1324.08 H 935.582 Z" /></clipPath><clipPath
       id="clipPath152"
       clipPathUnits="userSpaceOnUse"><path
         id="path150"
         d="m 485.281,798.941 187.684,-32.972 219.258,32.972 184.367,129.258 -2.36,456.381 -27.3,25.55 -324.473,-8.99 -237.176,-169.59 z" /></clipPath><clipPath
       id="clipPath158"
       clipPathUnits="userSpaceOnUse"><path
         id="path156"
         d="M 935.582,1324.08 H 1078.05 V 1181.61 H 935.582 Z" /></clipPath><clipPath
       id="clipPath180"
       clipPathUnits="userSpaceOnUse"><path
         id="path178"
         d="m 485.281,798.941 187.684,-32.972 219.258,32.972 184.367,129.258 -2.36,456.381 -27.3,25.55 -324.473,-8.99 -237.176,-169.59 z" /></clipPath><clipPath
       id="clipPath186"
       clipPathUnits="userSpaceOnUse"><path
         id="path184"
         d="M 935.582,1181.61 H 1078.05 V 1039.14 H 935.582 Z" /></clipPath><clipPath
       id="clipPath208"
       clipPathUnits="userSpaceOnUse"><path
         id="path206"
         d="m 485.281,798.941 187.684,-32.972 219.258,32.972 184.367,129.258 -2.36,456.381 -27.3,25.55 -324.473,-8.99 -237.176,-169.59 z" /></clipPath><clipPath
       id="clipPath214"
       clipPathUnits="userSpaceOnUse"><path
         id="path212"
         d="M 935.582,1039.14 H 1078.05 V 896.68 H 935.582 Z" /></clipPath><clipPath
       id="clipPath236"
       clipPathUnits="userSpaceOnUse"><path
         id="path234"
         d="m 485.281,798.941 187.684,-32.972 219.258,32.972 184.367,129.258 -2.36,456.381 -27.3,25.55 -324.473,-8.99 -237.176,-169.59 z" /></clipPath><clipPath
       id="clipPath242"
       clipPathUnits="userSpaceOnUse"><path
         id="path240"
         d="M 935.582,896.68 H 1078.05 V 754.211 H 935.582 Z" /></clipPath><clipPath
       id="clipPath258"
       clipPathUnits="userSpaceOnUse"><path
         id="path256"
         d="m 485.281,798.941 187.684,-32.972 219.258,32.972 184.367,129.258 -2.36,456.381 -27.3,25.55 -324.473,-8.99 -237.176,-169.59 z" /></clipPath><clipPath
       id="clipPath264"
       clipPathUnits="userSpaceOnUse"><path
         id="path262"
         d="M 793.113,1466.55 H 935.582 V 1324.08 H 793.113 Z" /></clipPath><clipPath
       id="clipPath282"
       clipPathUnits="userSpaceOnUse"><path
         id="path280"
         d="m 485.281,798.941 187.684,-32.972 219.258,32.972 184.367,129.258 -2.36,456.381 -27.3,25.55 -324.473,-8.99 -237.176,-169.59 z" /></clipPath><clipPath
       id="clipPath288"
       clipPathUnits="userSpaceOnUse"><path
         id="path286"
         d="M 793.113,1324.08 H 935.582 V 1181.61 H 793.113 Z" /></clipPath><clipPath
       id="clipPath310"
       clipPathUnits="userSpaceOnUse"><path
         id="path308"
         d="m 485.281,798.941 187.684,-32.972 219.258,32.972 184.367,129.258 -2.36,456.381 -27.3,25.55 -324.473,-8.99 -237.176,-169.59 z" /></clipPath><clipPath
       id="clipPath316"
       clipPathUnits="userSpaceOnUse"><path
         id="path314"
         d="M 793.113,1181.61 H 935.582 V 1039.14 H 793.113 Z" /></clipPath><clipPath
       id="clipPath338"
       clipPathUnits="userSpaceOnUse"><path
         id="path336"
         d="m 485.281,798.941 187.684,-32.972 219.258,32.972 184.367,129.258 -2.36,456.381 -27.3,25.55 -324.473,-8.99 -237.176,-169.59 z" /></clipPath><clipPath
       id="clipPath344"
       clipPathUnits="userSpaceOnUse"><path
         id="path342"
         d="M 793.113,1039.14 H 935.582 V 896.68 H 793.113 Z" /></clipPath><clipPath
       id="clipPath366"
       clipPathUnits="userSpaceOnUse"><path
         id="path364"
         d="m 485.281,798.941 187.684,-32.972 219.258,32.972 184.367,129.258 -2.36,456.381 -27.3,25.55 -324.473,-8.99 -237.176,-169.59 z" /></clipPath><clipPath
       id="clipPath372"
       clipPathUnits="userSpaceOnUse"><path
         id="path370"
         d="M 793.113,896.68 H 935.582 V 754.211 H 793.113 Z" /></clipPath><clipPath
       id="clipPath390"
       clipPathUnits="userSpaceOnUse"><path
         id="path388"
         d="m 485.281,798.941 187.684,-32.972 219.258,32.972 184.367,129.258 -2.36,456.381 -27.3,25.55 -324.473,-8.99 -237.176,-169.59 z" /></clipPath><clipPath
       id="clipPath396"
       clipPathUnits="userSpaceOnUse"><path
         id="path394"
         d="M 650.652,1466.55 H 793.113 V 1324.08 H 650.652 Z" /></clipPath><clipPath
       id="clipPath414"
       clipPathUnits="userSpaceOnUse"><path
         id="path412"
         d="m 485.281,798.941 187.684,-32.972 219.258,32.972 184.367,129.258 -2.36,456.381 -27.3,25.55 -324.473,-8.99 -237.176,-169.59 z" /></clipPath><clipPath
       id="clipPath420"
       clipPathUnits="userSpaceOnUse"><path
         id="path418"
         d="M 650.652,1324.08 H 793.113 V 1181.61 H 650.652 Z" /></clipPath><clipPath
       id="clipPath442"
       clipPathUnits="userSpaceOnUse"><path
         id="path440"
         d="m 485.281,798.941 187.684,-32.972 219.258,32.972 184.367,129.258 -2.36,456.381 -27.3,25.55 -324.473,-8.99 -237.176,-169.59 z" /></clipPath><clipPath
       id="clipPath448"
       clipPathUnits="userSpaceOnUse"><path
         id="path446"
         d="M 650.652,1181.61 H 793.113 V 1039.14 H 650.652 Z" /></clipPath><clipPath
       id="clipPath470"
       clipPathUnits="userSpaceOnUse"><path
         id="path468"
         d="m 485.281,798.941 187.684,-32.972 219.258,32.972 184.367,129.258 -2.36,456.381 -27.3,25.55 -324.473,-8.99 -237.176,-169.59 z" /></clipPath><clipPath
       id="clipPath476"
       clipPathUnits="userSpaceOnUse"><path
         id="path474"
         d="M 650.652,1039.14 H 793.113 V 896.68 H 650.652 Z" /></clipPath><clipPath
       id="clipPath498"
       clipPathUnits="userSpaceOnUse"><path
         id="path496"
         d="m 485.281,798.941 187.684,-32.972 219.258,32.972 184.367,129.258 -2.36,456.381 -27.3,25.55 -324.473,-8.99 -237.176,-169.59 z" /></clipPath><clipPath
       id="clipPath504"
       clipPathUnits="userSpaceOnUse"><path
         id="path502"
         d="M 650.652,896.68 H 793.113 V 754.211 H 650.652 Z" /></clipPath><clipPath
       id="clipPath526"
       clipPathUnits="userSpaceOnUse"><path
         id="path524"
         d="m 485.281,798.941 187.684,-32.972 219.258,32.972 184.367,129.258 -2.36,456.381 -27.3,25.55 -324.473,-8.99 -237.176,-169.59 z" /></clipPath><clipPath
       id="clipPath532"
       clipPathUnits="userSpaceOnUse"><path
         id="path530"
         d="M 508.18,1466.55 H 650.652 V 1324.08 H 508.18 Z" /></clipPath><clipPath
       id="clipPath542"
       clipPathUnits="userSpaceOnUse"><path
         id="path540"
         d="m 485.281,798.941 187.684,-32.972 219.258,32.972 184.367,129.258 -2.36,456.381 -27.3,25.55 -324.473,-8.99 -237.176,-169.59 z" /></clipPath><clipPath
       id="clipPath548"
       clipPathUnits="userSpaceOnUse"><path
         id="path546"
         d="M 508.18,1324.08 H 650.652 V 1181.61 H 508.18 Z" /></clipPath><clipPath
       id="clipPath570"
       clipPathUnits="userSpaceOnUse"><path
         id="path568"
         d="m 485.281,798.941 187.684,-32.972 219.258,32.972 184.367,129.258 -2.36,456.381 -27.3,25.55 -324.473,-8.99 -237.176,-169.59 z" /></clipPath><clipPath
       id="clipPath576"
       clipPathUnits="userSpaceOnUse"><path
         id="path574"
         d="M 508.18,1181.61 H 650.652 V 1039.14 H 508.18 Z" /></clipPath><clipPath
       id="clipPath598"
       clipPathUnits="userSpaceOnUse"><path
         id="path596"
         d="m 485.281,798.941 187.684,-32.972 219.258,32.972 184.367,129.258 -2.36,456.381 -27.3,25.55 -324.473,-8.99 -237.176,-169.59 z" /></clipPath><clipPath
       id="clipPath604"
       clipPathUnits="userSpaceOnUse"><path
         id="path602"
         d="M 508.18,1039.14 H 650.652 V 896.68 H 508.18 Z" /></clipPath><clipPath
       id="clipPath626"
       clipPathUnits="userSpaceOnUse"><path
         id="path624"
         d="m 485.281,798.941 187.684,-32.972 219.258,32.972 184.367,129.258 -2.36,456.381 -27.3,25.55 -324.473,-8.99 -237.176,-169.59 z" /></clipPath><clipPath
       id="clipPath632"
       clipPathUnits="userSpaceOnUse"><path
         id="path630"
         d="M 508.18,896.68 H 650.652 V 754.211 H 508.18 Z" /></clipPath><clipPath
       id="clipPath654"
       clipPathUnits="userSpaceOnUse"><path
         id="path652"
         d="m 485.281,798.941 187.684,-32.972 219.258,32.972 184.367,129.258 -2.36,456.381 -27.3,25.55 -324.473,-8.99 -237.176,-169.59 z" /></clipPath><clipPath
       id="clipPath660"
       clipPathUnits="userSpaceOnUse"><path
         id="path658"
         d="M 365.711,1324.08 H 508.18 V 1181.61 H 365.711 Z" /></clipPath><clipPath
       id="clipPath672"
       clipPathUnits="userSpaceOnUse"><path
         id="path670"
         d="m 485.281,798.941 187.684,-32.972 219.258,32.972 184.367,129.258 -2.36,456.381 -27.3,25.55 -324.473,-8.99 -237.176,-169.59 z" /></clipPath><clipPath
       id="clipPath678"
       clipPathUnits="userSpaceOnUse"><path
         id="path676"
         d="M 365.711,1181.61 H 508.18 V 1039.14 H 365.711 Z" /></clipPath><clipPath
       id="clipPath692"
       clipPathUnits="userSpaceOnUse"><path
         id="path690"
         d="m 485.281,798.941 187.684,-32.972 219.258,32.972 184.367,129.258 -2.36,456.381 -27.3,25.55 -324.473,-8.99 -237.176,-169.59 z" /></clipPath><clipPath
       id="clipPath698"
       clipPathUnits="userSpaceOnUse"><path
         id="path696"
         d="M 365.711,1039.14 H 508.18 V 896.68 H 365.711 Z" /></clipPath><clipPath
       id="clipPath712"
       clipPathUnits="userSpaceOnUse"><path
         id="path710"
         d="m 485.281,798.941 187.684,-32.972 219.258,32.972 184.367,129.258 -2.36,456.381 -27.3,25.55 -324.473,-8.99 -237.176,-169.59 z" /></clipPath><clipPath
       id="clipPath718"
       clipPathUnits="userSpaceOnUse"><path
         id="path716"
         d="M 365.711,896.68 H 508.18 V 754.211 H 365.711 Z" /></clipPath><clipPath
       id="clipPath726"
       clipPathUnits="userSpaceOnUse"><path
         id="path724"
         d="M 0,0 V 50 H 50 V 0 Z" /></clipPath><pattern
       id="pattern748"
       height="5"
       width="5"
       y="0"
       x="0"
       patternUnits="userSpaceOnUse"
       patternTransform="matrix(28.4935,0,0,28.4935,81,-101)"><g
         id="g746"
         transform="scale(0.1)"><g
           id="g744"><g
             id="g742"
             clip-path="url(#clipPath726)"><path
               id="path728"
               style="fill:#79561e;fill-opacity:1;fill-rule:nonzero;stroke:none"
               d="m 46.625,-0.21875 c 0,-5.15625 -4.1797,-9.33594 -9.3359,-9.33594 -5.1563,0 -9.336,4.17969 -9.336,9.33594 0,5.15625 4.1797,9.33594 9.336,9.33594 5.1562,0 9.3359,-4.17969 9.3359,-9.33594" /><path
               id="path730"
               style="fill:#79561e;fill-opacity:1;fill-rule:nonzero;stroke:none"
               d="m 21.625,-0.21875 c 0,-5.15625 -4.1797,-9.33594 -9.3359,-9.33594 -5.15629,0 -9.33597,4.17969 -9.33597,9.33594 0,5.15625 4.17968,9.33594 9.33597,9.33594 5.1562,0 9.3359,-4.17969 9.3359,-9.33594" /><path
               id="path732"
               style="fill:#79561e;fill-opacity:1;fill-rule:nonzero;stroke:none"
               d="m 59.125,24.7813 c 0,-5.1563 -4.1797,-9.336 -9.3359,-9.336 -5.1563,0 -9.336,4.1797 -9.336,9.336 0,5.1562 4.1797,9.3359 9.336,9.3359 5.1562,0 9.3359,-4.1797 9.3359,-9.3359" /><path
               id="path734"
               style="fill:#79561e;fill-opacity:1;fill-rule:nonzero;stroke:none"
               d="m 34.125,24.7813 c 0,-5.1563 -4.1797,-9.336 -9.3359,-9.336 -5.1563,0 -9.336,4.1797 -9.336,9.336 0,5.1562 4.1797,9.3359 9.336,9.3359 5.1562,0 9.3359,-4.1797 9.3359,-9.3359" /><path
               id="path736"
               style="fill:#79561e;fill-opacity:1;fill-rule:nonzero;stroke:none"
               d="m 9.125,24.7813 c 0,-5.1563 -4.17969,-9.336 -9.335938,-9.336 -5.156252,0 -9.335942,4.1797 -9.335942,9.336 0,5.1562 4.17969,9.3359 9.335942,9.3359 5.156248,0 9.335938,-4.1797 9.335938,-9.3359" /><path
               id="path738"
               style="fill:#79561e;fill-opacity:1;fill-rule:nonzero;stroke:none"
               d="m 46.625,49.7813 c 0,-5.1563 -4.1797,-9.336 -9.3359,-9.336 -5.1563,0 -9.336,4.1797 -9.336,9.336 0,5.1562 4.1797,9.3359 9.336,9.3359 5.1562,0 9.3359,-4.1797 9.3359,-9.3359" /><path
               id="path740"
               style="fill:#79561e;fill-opacity:1;fill-rule:nonzero;stroke:none"
               d="m 21.625,49.7813 c 0,-5.1563 -4.1797,-9.336 -9.3359,-9.336 -5.15629,0 -9.33597,4.1797 -9.33597,9.336 0,5.1562 4.17968,9.3359 9.33597,9.3359 5.1562,0 9.3359,-4.1797 9.3359,-9.3359" /></g></g></g></pattern></defs><g
     transform="matrix(1.3333333,0,0,-1.3333333,0,251.01333)"
     id="g10"><g
       transform="scale(0.1)"
       id="g12"><path
         id="path14"
         style="fill:#ffffff;fill-opacity:1;fill-rule:nonzero;stroke:none"
         d="m 2548.6,55.3594 h 3106.06 c 50.7,0 92.17,41.4804 92.17,92.1716 v 849.055 c 0,50.694 -41.47,92.164 -92.17,92.164 H 2548.6 c -50.69,0 -92.17,-41.47 -92.17,-92.164 V 147.531 c 0,-50.6912 41.48,-92.1716 92.17,-92.1716" /><path
         id="path16"
         style="fill:#e81f2a;fill-opacity:1;fill-rule:nonzero;stroke:none"
         d="m 2548.6,1062.06 c -36.1,0 -65.48,-29.37 -65.48,-65.474 V 147.531 c 0,-36.101 29.38,-65.4802 65.48,-65.4802 h 3106.06 c 36.11,0 65.48,29.3792 65.48,65.4802 v 849.055 c 0,36.104 -29.37,65.474 -65.48,65.474 z M 5654.66,28.6719 H 2548.6 c -65.54,0 -118.86,53.3281 -118.86,118.8591 v 849.055 c 0,65.534 53.32,118.854 118.86,118.854 h 3106.06 c 65.54,0 118.86,-53.32 118.86,-118.854 V 147.531 C 5773.52,82 5720.2,28.6719 5654.66,28.6719" /><path
         id="path18"
         style="fill:#e81f2a;fill-opacity:1;fill-rule:nonzero;stroke:none"
         d="m 2799.94,343.879 c -3.2,5.121 -7.17,9.609 -11.96,13.492 -4.77,3.867 -10.19,6.891 -16.22,9.051 -6.03,2.156 -12.35,3.25 -18.95,3.25 -12.07,0 -22.32,-2.344 -30.73,-7.012 -8.43,-4.66 -15.26,-10.922 -20.49,-18.781 -5.25,-7.859 -9.05,-16.789 -11.45,-26.797 -2.39,-10.031 -3.58,-20.383 -3.58,-31.094 0,-10.238 1.19,-20.199 3.58,-29.879 2.4,-9.679 6.2,-18.379 11.45,-26.121 5.23,-7.75 12.06,-13.949 20.49,-18.617 8.41,-4.66 18.66,-6.992 30.73,-6.992 16.4,0 29.2,5 38.42,15.019 9.22,10.024 14.85,23.223 16.9,39.622 h 51.92 c -1.37,-15.25 -4.91,-29.032 -10.59,-41.329 -5.69,-12.293 -13.21,-22.761 -22.54,-31.41 -9.35,-8.66 -20.27,-15.261 -32.78,-19.812 -12.53,-4.547 -26.3,-6.828 -41.33,-6.828 -18.67,0 -35.46,3.25 -50.37,9.73 -14.91,6.5 -27.49,15.418 -37.74,26.809 -10.24,11.39 -18.09,24.769 -23.56,40.129 -5.46,15.371 -8.19,31.929 -8.19,49.679 0,18.223 2.73,35.121 8.19,50.723 5.47,15.59 13.32,29.199 23.56,40.809 10.25,11.609 22.83,20.71 37.74,27.32 14.91,6.601 31.7,9.898 50.37,9.898 13.44,0 26.12,-1.929 38.08,-5.808 11.95,-3.86 22.65,-9.5 32.1,-16.899 9.45,-7.39 17.24,-16.562 23.39,-27.492 6.15,-10.93 10.02,-23.449 11.61,-37.559 h -51.91 c -0.91,6.141 -2.96,11.782 -6.14,16.899" /><path
         id="path20"
         style="fill:#e81f2a;fill-opacity:1;fill-rule:nonzero;stroke:none"
         d="m 2953.27,408.93 v -91.848 h 1.02 c 6.15,10.238 14.01,17.688 23.57,22.359 9.56,4.668 18.89,7 28,7 12.97,0 23.62,-1.761 31.93,-5.293 8.31,-3.527 14.85,-8.429 19.64,-14.687 4.77,-6.262 8.13,-13.883 10.07,-22.883 1.93,-8.988 2.91,-18.949 2.91,-29.879 v -108.59 h -48.5 v 99.711 c 0,14.571 -2.27,25.442 -6.83,32.621 -4.56,7.168 -12.63,10.75 -24.24,10.75 -13.22,0 -22.78,-3.921 -28.7,-11.781 -5.91,-7.851 -8.87,-20.781 -8.87,-38.762 v -92.539 h -48.5 V 408.93 h 48.5" /><path
         id="path22"
         style="fill:#e81f2a;fill-opacity:1;fill-rule:nonzero;stroke:none"
         d="m 3227.32,300.34 c -5.8,6.371 -14.63,9.558 -26.46,9.558 -7.75,0 -14.17,-1.308 -19.3,-3.929 -5.12,-2.61 -9.22,-5.848 -12.29,-9.731 -3.07,-3.867 -5.24,-7.968 -6.49,-12.297 -1.25,-4.32 -1.99,-8.191 -2.22,-11.613 h 78.89 c -2.28,12.301 -6.32,21.633 -12.13,28.012 z m -54.8,-92.891 c 7.28,-7.058 17.75,-10.59 31.41,-10.59 9.79,0 18.21,2.442 25.28,7.352 7.05,4.891 11.37,10.078 12.97,15.527 h 42.69 c -6.84,-21.168 -17.31,-36.308 -31.42,-45.418 -14.12,-9.109 -31.2,-13.66 -51.23,-13.66 -13.88,0 -26.41,2.231 -37.57,6.66 -11.15,4.45 -20.6,10.758 -28.34,18.961 -7.74,8.188 -13.72,17.981 -17.92,29.367 -4.22,11.383 -6.32,23.903 -6.32,37.563 0,13.199 2.15,25.5 6.49,36.891 4.32,11.367 10.47,21.226 18.44,29.539 7.97,8.308 17.47,14.847 28.51,19.64 11.04,4.77 23.28,7.16 36.71,7.16 15.03,0 28.12,-2.902 39.28,-8.711 11.15,-5.8 20.31,-13.601 27.49,-23.39 7.17,-9.789 12.34,-20.942 15.54,-33.461 3.18,-12.527 4.31,-25.617 3.42,-39.277 h -127.39 c 0.69,-15.704 4.66,-27.09 11.96,-34.153" /><path
         id="path24"
         style="fill:#e81f2a;fill-opacity:1;fill-rule:nonzero;stroke:none"
         d="m 3481.9,165.109 -31.42,118.493 h -0.68 l -30.06,-118.493 h -50.19 l -56.01,176.551 h 51.22 l 32.44,-119.871 h 0.69 l 29.37,119.871 h 47.13 l 30.05,-119.519 h 0.68 l 32.44,119.519 h 49.87 l -55.68,-176.551 h -49.85" /><path
         id="path26"
         style="fill:#e81f2a;fill-opacity:1;fill-rule:nonzero;stroke:none"
         d="m 3731.2,251.5 c -2.05,-1.82 -4.61,-3.238 -7.69,-4.27 -3.07,-1.019 -6.37,-1.871 -9.9,-2.55 -3.54,-0.692 -7.24,-1.25 -11.1,-1.711 -3.88,-0.457 -7.75,-1.028 -11.62,-1.707 -3.64,-0.692 -7.22,-1.59 -10.75,-2.742 -3.53,-1.129 -6.61,-2.668 -9.23,-4.61 -2.61,-1.93 -4.72,-4.379 -6.3,-7.328 -1.61,-2.973 -2.4,-6.723 -2.4,-11.273 0,-4.34 0.79,-7.981 2.4,-10.93 1.58,-2.969 3.75,-5.297 6.48,-7 2.73,-1.707 5.92,-2.91 9.56,-3.59 3.64,-0.68 7.39,-1.019 11.27,-1.019 9.56,0 16.96,1.582 22.2,4.781 5.23,3.179 9.1,7 11.61,11.437 2.5,4.442 4.04,8.934 4.61,13.492 0.56,4.551 0.86,8.192 0.86,10.93 z m -112.01,35.859 c 0.67,11.391 3.52,20.832 8.53,28.352 5,7.508 11.38,13.539 19.12,18.098 7.74,4.55 16.45,7.793 26.13,9.73 9.67,1.93 19.41,2.902 29.19,2.902 8.88,0 17.88,-0.632 26.99,-1.871 9.1,-1.261 17.41,-3.711 24.93,-7.351 7.51,-3.641 13.65,-8.707 18.44,-15.188 4.78,-6.492 7.16,-15.09 7.16,-25.793 v -91.859 c 0,-7.981 0.46,-15.598 1.37,-22.879 0.91,-7.289 2.5,-12.75 4.79,-16.391 h -49.18 c -0.91,2.731 -1.65,5.512 -2.22,8.36 -0.58,2.851 -0.98,5.75 -1.2,8.711 -7.74,-7.969 -16.85,-13.551 -27.32,-16.731 -10.47,-3.187 -21.17,-4.789 -32.1,-4.789 -8.42,0 -16.27,1.031 -23.56,3.078 -7.29,2.051 -13.66,5.231 -19.13,9.563 -5.46,4.32 -9.73,9.777 -12.8,16.398 -3.08,6.602 -4.61,14.449 -4.61,23.563 0,10.008 1.75,18.269 5.29,24.758 3.53,6.48 8.08,11.66 13.66,15.531 5.58,3.871 11.96,6.781 19.12,8.711 7.18,1.937 14.4,3.468 21.69,4.609 7.29,1.141 14.46,2.051 21.52,2.738 7.05,0.68 13.32,1.711 18.78,3.063 5.46,1.367 9.78,3.359 12.97,5.976 3.19,2.622 4.67,6.442 4.45,11.454 0,5.23 -0.86,9.386 -2.57,12.457 -1.71,3.07 -3.99,5.472 -6.83,7.171 -2.85,1.711 -6.15,2.848 -9.9,3.411 -3.76,0.57 -7.8,0.859 -12.13,0.859 -9.56,0 -17.07,-2.051 -22.54,-6.148 -5.46,-4.09 -8.65,-10.93 -9.56,-20.493 h -48.48" /><path
         id="path28"
         style="fill:#e81f2a;fill-opacity:1;fill-rule:nonzero;stroke:none"
         d="m 3957.6,274.719 c -1.59,6.84 -4.1,12.871 -7.51,18.113 -3.41,5.227 -7.68,9.379 -12.81,12.457 -5.12,3.082 -11.33,4.609 -18.6,4.609 -7.06,0 -13.21,-1.527 -18.45,-4.609 -5.23,-3.078 -9.56,-7.23 -12.98,-12.457 -3.41,-5.242 -5.92,-11.273 -7.51,-18.113 -1.59,-6.821 -2.39,-13.989 -2.39,-21.508 0,-7.281 0.8,-14.34 2.39,-21.172 1.59,-6.828 4.1,-12.859 7.51,-18.098 3.42,-5.242 7.75,-9.39 12.98,-12.472 5.24,-3.059 11.39,-4.61 18.45,-4.61 7.27,0 13.48,1.551 18.6,4.61 5.13,3.082 9.4,7.23 12.81,12.472 3.41,5.239 5.92,11.27 7.51,18.098 1.6,6.832 2.4,13.891 2.4,21.172 0,7.519 -0.8,14.687 -2.4,21.508 z m -78.54,134.211 v -88.789 h 0.68 c 5.92,9.109 13.95,15.769 24.08,19.98 10.12,4.207 20.66,6.32 31.59,6.32 8.87,0 17.63,-1.82 26.3,-5.472 8.64,-3.641 16.44,-9.207 23.38,-16.719 6.95,-7.512 12.58,-17.141 16.91,-28.859 4.33,-11.731 6.49,-25.68 6.49,-41.84 0,-16.16 -2.16,-30.102 -6.49,-41.832 -4.33,-11.731 -9.96,-21.34 -16.91,-28.86 -6.94,-7.507 -14.74,-13.089 -23.38,-16.73 -8.67,-3.641 -17.43,-5.469 -26.3,-5.469 -12.98,0 -24.59,2.051 -34.84,6.149 -10.24,4.101 -17.99,11.043 -23.22,20.832 h -0.68 v -22.532 h -46.11 V 408.93 h 48.5" /><path
         id="path30"
         style="fill:#e81f2a;fill-opacity:1;fill-rule:nonzero;stroke:none"
         d="M 4102.4,408.93 V 165.109 h -48.5 V 408.93 h 48.5" /><path
         id="path32"
         style="fill:#e81f2a;fill-opacity:1;fill-rule:nonzero;stroke:none"
         d="m 4260.68,300.34 c -5.8,6.371 -14.63,9.558 -26.46,9.558 -7.75,0 -14.17,-1.308 -19.3,-3.929 -5.12,-2.61 -9.22,-5.848 -12.29,-9.731 -3.07,-3.867 -5.24,-7.968 -6.49,-12.297 -1.25,-4.32 -1.99,-8.191 -2.22,-11.613 h 78.89 c -2.28,12.301 -6.32,21.633 -12.13,28.012 z m -54.8,-92.891 c 7.28,-7.058 17.75,-10.59 31.41,-10.59 9.79,0 18.21,2.442 25.28,7.352 7.05,4.891 11.37,10.078 12.97,15.527 h 42.69 c -6.84,-21.168 -17.31,-36.308 -31.42,-45.418 -14.12,-9.109 -31.2,-13.66 -51.23,-13.66 -13.88,0 -26.41,2.231 -37.57,6.66 -11.15,4.45 -20.6,10.758 -28.34,18.961 -7.74,8.188 -13.72,17.981 -17.93,29.367 -4.21,11.383 -6.31,23.903 -6.31,37.563 0,13.199 2.15,25.5 6.49,36.891 4.32,11.367 10.47,21.226 18.44,29.539 7.97,8.308 17.47,14.847 28.51,19.64 11.04,4.77 23.28,7.16 36.71,7.16 15.03,0 28.12,-2.902 39.28,-8.711 11.15,-5.8 20.31,-13.601 27.49,-23.39 7.17,-9.789 12.34,-20.942 15.54,-33.461 3.18,-12.527 4.31,-25.617 3.42,-39.277 h -127.39 c 0.69,-15.704 4.66,-27.09 11.96,-34.153" /><path
         id="path34"
         style="fill:#e81f2a;fill-opacity:1;fill-rule:nonzero;stroke:none"
         d="m 4633.08,343.879 c -3.19,5.121 -7.17,9.609 -11.95,13.492 -4.78,3.867 -10.2,6.891 -16.22,9.051 -6.04,2.156 -12.35,3.25 -18.96,3.25 -12.07,0 -22.31,-2.344 -30.73,-7.012 -8.43,-4.66 -15.25,-10.922 -20.49,-18.781 -5.24,-7.859 -9.05,-16.789 -11.44,-26.797 -2.39,-10.031 -3.59,-20.383 -3.59,-31.094 0,-10.238 1.2,-20.199 3.59,-29.879 2.39,-9.679 6.2,-18.379 11.44,-26.121 5.24,-7.75 12.06,-13.949 20.49,-18.617 8.42,-4.66 18.66,-6.992 30.73,-6.992 16.4,0 29.2,5 38.42,15.019 9.22,10.024 14.86,23.223 16.91,39.622 h 51.91 c -1.37,-15.25 -4.9,-29.032 -10.59,-41.329 -5.69,-12.293 -13.21,-22.761 -22.53,-31.41 -9.35,-8.66 -20.28,-15.261 -32.79,-19.812 -12.53,-4.547 -26.3,-6.828 -41.33,-6.828 -18.67,0 -35.46,3.25 -50.37,9.73 -14.91,6.5 -27.49,15.418 -37.73,26.809 -10.25,11.39 -18.1,24.769 -23.57,40.129 -5.45,15.371 -8.19,31.929 -8.19,49.679 0,18.223 2.74,35.121 8.19,50.723 5.47,15.59 13.32,29.199 23.57,40.809 10.24,11.609 22.82,20.71 37.73,27.32 14.91,6.601 31.7,9.898 50.37,9.898 13.44,0 26.13,-1.929 38.08,-5.808 11.95,-3.86 22.66,-9.5 32.11,-16.899 9.44,-7.39 17.24,-16.562 23.39,-27.492 6.14,-10.93 10.02,-23.449 11.61,-37.559 h -51.91 c -0.91,6.141 -2.96,11.782 -6.15,16.899" /><path
         id="path36"
         style="fill:#e81f2a;fill-opacity:1;fill-rule:nonzero;stroke:none"
         d="m 4782.99,232.559 c 1.37,-6.719 3.71,-12.758 7.01,-18.11 3.3,-5.347 7.68,-9.621 13.15,-12.801 5.46,-3.187 12.29,-4.789 20.49,-4.789 8.19,0 15.08,1.602 20.65,4.789 5.58,3.18 10.02,7.454 13.32,12.801 3.3,5.352 5.64,11.391 7.01,18.11 1.36,6.711 2.05,13.589 2.05,20.652 0,7.059 -0.69,14 -2.05,20.828 -1.37,6.84 -3.71,12.859 -7.01,18.109 -3.3,5.231 -7.74,9.5 -13.32,12.801 -5.57,3.301 -12.46,4.949 -20.65,4.949 -8.2,0 -15.03,-1.648 -20.49,-4.949 -5.47,-3.301 -9.85,-7.57 -13.15,-12.801 -3.3,-5.25 -5.64,-11.269 -7.01,-18.109 -1.36,-6.828 -2.04,-13.769 -2.04,-20.828 0,-7.063 0.68,-13.941 2.04,-20.652 z m -44.05,59.07 c 4.33,11.492 10.47,21.293 18.45,29.371 7.96,8.082 17.53,14.34 28.68,18.781 11.15,4.449 23.67,6.66 37.57,6.66 13.89,0 26.46,-2.211 37.73,-6.66 11.27,-4.441 20.89,-10.699 28.86,-18.781 7.97,-8.078 14.11,-17.879 18.44,-29.371 4.32,-11.5 6.49,-24.309 6.49,-38.418 0,-14.121 -2.17,-26.859 -6.49,-38.242 -4.33,-11.391 -10.47,-21.117 -18.44,-29.199 -7.97,-8.09 -17.59,-14.301 -28.86,-18.61 -11.27,-4.328 -23.84,-6.5 -37.73,-6.5 -13.9,0 -26.42,2.172 -37.57,6.5 -11.15,4.309 -20.72,10.52 -28.68,18.61 -7.98,8.082 -14.12,17.808 -18.45,29.199 -4.32,11.383 -6.48,24.121 -6.48,38.242 0,14.109 2.16,26.918 6.48,38.418" /><path
         id="path38"
         style="fill:#e81f2a;fill-opacity:1;fill-rule:nonzero;stroke:none"
         d="m 4941.45,309.219 v 32.441 h 29.03 v 13.66 c 0,15.711 4.89,28.571 14.68,38.59 9.79,10.012 24.59,15.02 44.4,15.02 4.32,0 8.65,-0.16 12.98,-0.5 4.32,-0.352 8.53,-0.641 12.63,-0.852 v -36.207 c -5.69,0.688 -11.61,1.027 -17.76,1.027 -6.6,0 -11.33,-1.539 -14.17,-4.609 -2.85,-3.078 -4.27,-8.258 -4.27,-15.551 V 341.66 h 33.47 v -32.441 h -33.47 v -144.11 h -48.49 v 144.11 h -29.03" /><path
         id="path40"
         style="fill:#e81f2a;fill-opacity:1;fill-rule:nonzero;stroke:none"
         d="m 5062.35,309.219 v 32.441 h 29.02 v 13.66 c 0,15.711 4.9,28.571 14.69,38.59 9.79,10.012 24.59,15.02 44.4,15.02 4.32,0 8.65,-0.16 12.97,-0.5 4.33,-0.352 8.54,-0.641 12.64,-0.852 v -36.207 c -5.69,0.688 -11.61,1.027 -17.76,1.027 -6.6,0 -11.33,-1.539 -14.17,-4.609 -2.85,-3.078 -4.27,-8.258 -4.27,-15.551 V 341.66 h 33.47 v -32.441 h -33.47 v -144.11 h -48.5 v 144.11 h -29.02" /><path
         id="path42"
         style="fill:#e81f2a;fill-opacity:1;fill-rule:nonzero;stroke:none"
         d="m 5314.55,300.34 c -5.8,6.371 -14.63,9.558 -26.47,9.558 -7.74,0 -14.17,-1.308 -19.29,-3.929 -5.12,-2.61 -9.22,-5.848 -12.29,-9.731 -3.08,-3.867 -5.24,-7.968 -6.49,-12.297 -1.25,-4.32 -2,-8.191 -2.22,-11.613 h 78.89 c -2.28,12.301 -6.32,21.633 -12.13,28.012 z m -54.81,-92.891 c 7.29,-7.058 17.76,-10.59 31.42,-10.59 9.78,0 18.21,2.442 25.27,7.352 7.05,4.891 11.38,10.078 12.98,15.527 h 42.69 c -6.84,-21.168 -17.31,-36.308 -31.42,-45.418 -14.12,-9.109 -31.2,-13.66 -51.23,-13.66 -13.89,0 -26.42,2.231 -37.57,6.66 -11.15,4.45 -20.6,10.758 -28.34,18.961 -7.74,8.188 -13.72,17.981 -17.93,29.367 -4.22,11.383 -6.32,23.903 -6.32,37.563 0,13.199 2.16,25.5 6.5,36.891 4.31,11.367 10.47,21.226 18.44,29.539 7.96,8.308 17.47,14.847 28.51,19.64 11.04,4.77 23.27,7.16 36.71,7.16 15.03,0 28.12,-2.902 39.28,-8.711 11.15,-5.8 20.31,-13.601 27.49,-23.39 7.17,-9.789 12.34,-20.942 15.53,-33.461 3.19,-12.527 4.32,-25.617 3.42,-39.277 h -127.38 c 0.68,-15.704 4.66,-27.09 11.95,-34.153" /><path
         id="path44"
         style="fill:#e81f2a;fill-opacity:1;fill-rule:nonzero;stroke:none"
         d="m 5523.87,300.34 c -5.8,6.371 -14.63,9.558 -26.46,9.558 -7.75,0 -14.17,-1.308 -19.3,-3.929 -5.12,-2.61 -9.22,-5.848 -12.28,-9.731 -3.08,-3.867 -5.25,-7.968 -6.5,-12.297 -1.25,-4.32 -1.99,-8.191 -2.21,-11.613 H 5536 c -2.27,12.301 -6.32,21.633 -12.13,28.012 z m -54.8,-92.891 c 7.28,-7.058 17.75,-10.59 31.42,-10.59 9.78,0 18.21,2.442 25.27,7.352 7.05,4.891 11.38,10.078 12.98,15.527 h 42.68 c -6.83,-21.168 -17.3,-36.308 -31.41,-45.418 -14.12,-9.109 -31.2,-13.66 -51.23,-13.66 -13.89,0 -26.42,2.231 -37.57,6.66 -11.15,4.45 -20.61,10.758 -28.34,18.961 -7.75,8.188 -13.72,17.981 -17.93,29.367 -4.22,11.383 -6.32,23.903 -6.32,37.563 0,13.199 2.16,25.5 6.49,36.891 4.32,11.367 10.47,21.226 18.44,29.539 7.97,8.308 17.47,14.847 28.52,19.64 11.03,4.77 23.27,7.16 36.71,7.16 15.03,0 28.11,-2.902 39.27,-8.711 11.16,-5.8 20.32,-13.601 27.49,-23.39 7.17,-9.789 12.35,-20.942 15.54,-33.461 3.18,-12.527 4.32,-25.617 3.42,-39.277 h -127.38 c 0.68,-15.704 4.65,-27.09 11.95,-34.153" /><path
         id="path46"
         style="fill:#e81f2a;fill-opacity:1;fill-rule:nonzero;stroke:none"
         d="M 737.828,505.68 H 5733.64 c 54.9,0 99.41,44.511 99.41,99.41 v 979.93 c 0,54.91 -44.51,99.42 -99.41,99.42 H 737.828 c -54.902,0 -99.414,-44.51 -99.414,-99.42 V 605.09 c 0,-54.899 44.512,-99.41 99.414,-99.41" /><path
         id="path48"
         style="fill:#e81f2a;fill-opacity:1;fill-rule:nonzero;stroke:none"
         d="m 737.828,1655.65 c -38.945,0 -70.625,-31.69 -70.625,-70.63 V 605.09 c 0,-38.942 31.68,-70.621 70.625,-70.621 H 5733.64 c 38.94,0 70.62,31.679 70.62,70.621 v 979.93 c 0,38.94 -31.68,70.63 -70.62,70.63 z M 5733.64,476.891 H 737.828 c -70.691,0 -128.203,57.507 -128.203,128.199 v 979.93 c 0,70.69 57.512,128.21 128.203,128.21 H 5733.64 c 70.69,0 128.2,-57.52 128.2,-128.21 V 605.09 c 0,-70.692 -57.51,-128.199 -128.2,-128.199" /><path
         id="path50"
         style="fill:#ffffff;fill-opacity:1;fill-rule:nonzero;stroke:none"
         d="m 3702.07,749.77 v 0.48 c 0,29.102 -20.03,47.699 -43.41,47.699 -22.89,0 -44.59,-19.32 -44.59,-47.461 v -0.476 c 0,-28.621 21.7,-47.703 44.59,-47.703 23.86,0 43.41,17.652 43.41,47.461 z m -87.29,-37.68 v -23.61 h -18.37 v 174.098 h 18.37 V 786.98 c 10.01,14.782 24.56,27.43 47.22,27.43 29.58,0 58.9,-23.379 58.9,-63.922 v -0.476 c 0,-40.301 -29.09,-64.16 -58.9,-64.16 -22.89,0 -37.68,12.398 -47.22,26.238" /><path
         id="path52"
         style="fill:#ffffff;fill-opacity:1;fill-rule:nonzero;stroke:none"
         d="m 3841.82,811.781 h 19.55 L 3809.63,684.43 c -10.5,-25.52 -22.43,-34.828 -41.03,-34.828 -10.25,0 -17.89,2.148 -26.23,6.199 l 6.2,14.551 c 5.96,-3.102 11.45,-4.532 19.32,-4.532 10.96,0 17.88,5.731 25.27,23.141 l -56.04,122.82 h 20.27 l 44.84,-102.793 39.59,102.793" /><path
         id="path54"
         style="fill:#ffffff;fill-opacity:1;fill-rule:nonzero;stroke:none"
         d="m 3966.55,855.422 h 17.65 l 105.17,-133.793 v 133.793 h 18.37 V 688.48 h -15.03 l -107.8,136.891 V 688.48 h -18.36 v 166.942" /><path
         id="path56"
         style="fill:#ffffff;fill-opacity:1;fill-rule:nonzero;stroke:none"
         d="m 4298.99,771.48 v 0.481 c 0,37.918 -27.66,68.918 -65.82,68.918 -38.16,0 -65.35,-30.527 -65.35,-68.457 v -0.461 c 0,-37.922 27.67,-68.93 65.83,-68.93 38.15,0 65.34,30.528 65.34,68.449 z m -150.72,0 v 0.481 c 0,46.019 34.58,86.32 85.38,86.32 50.8,0 84.9,-39.82 84.9,-85.859 v -0.461 c 0,-46.039 -34.58,-86.34 -85.38,-86.34 -50.8,0 -84.9,39.82 -84.9,85.859" /><path
         id="path58"
         style="fill:#ffffff;fill-opacity:1;fill-rule:nonzero;stroke:none"
         d="m 4502.42,771.48 v 0.481 c 0,37.918 -27.67,68.918 -65.82,68.918 -38.17,0 -65.35,-30.527 -65.35,-68.457 v -0.461 c 0,-37.922 27.66,-68.93 65.83,-68.93 38.15,0 65.34,30.528 65.34,68.449 z m -150.72,0 v 0.481 c 0,46.019 34.58,86.32 85.38,86.32 50.8,0 84.9,-39.82 84.9,-85.859 v -0.461 c 0,-46.039 -34.58,-86.34 -85.38,-86.34 -50.8,0 -84.9,39.82 -84.9,85.859" /><path
         id="path60"
         style="fill:#ffffff;fill-opacity:1;fill-rule:nonzero;stroke:none"
         d="m 4595.2,838.02 h -56.04 v 17.402 h 131.17 V 838.02 h -56.05 V 688.48 h -19.08 v 149.54" /><path
         id="path62"
         style="fill:#ffffff;fill-opacity:1;fill-rule:nonzero;stroke:none"
         d="m 4776.45,770.289 c 25.04,0 42.93,12.871 42.93,34.332 v 0.481 c 0,20.519 -15.74,32.918 -42.69,32.918 h -51.52 v -67.731 z m -70.12,85.133 h 71.79 c 20.51,0 36.96,-6.203 47.46,-16.692 8.11,-8.109 12.87,-19.789 12.87,-32.91 v -0.48 c 0,-27.66 -19.07,-43.879 -45.31,-48.649 l 51.28,-68.211 h -23.13 l -48.42,64.872 h -47.7 V 688.48 h -18.84 v 166.942" /><path
         id="path64"
         style="fill:#ffffff;fill-opacity:1;fill-rule:nonzero;stroke:none"
         d="m 5022.8,771.48 v 0.481 c 0,37.918 -27.67,68.918 -65.82,68.918 -38.16,0 -65.35,-30.527 -65.35,-68.457 v -0.461 c 0,-37.922 27.66,-68.93 65.83,-68.93 38.15,0 65.34,30.528 65.34,68.449 z m -150.72,0 v 0.481 c 0,46.019 34.58,86.32 85.38,86.32 50.8,0 84.9,-39.82 84.9,-85.859 v -0.461 c 0,-46.039 -34.58,-86.34 -85.38,-86.34 -50.8,0 -84.9,39.82 -84.9,85.859" /><path
         id="path66"
         style="fill:#ffffff;fill-opacity:1;fill-rule:nonzero;stroke:none"
         d="m 5154.21,764.32 h -52.71 v -58.91 h 56.05 c 25.28,0 41.01,11.211 41.01,29.82 v 0.481 c 0,18.121 -15.26,28.609 -44.35,28.609 z m 35.05,46.981 c 0,16.461 -13.11,27.187 -36.96,27.187 h -50.8 V 781.02 h 49.37 c 22.65,0 38.39,10.25 38.39,29.8 z m -106.36,44.121 h 71.06 c 19.08,0 34.11,-5.481 43.65,-14.781 6.92,-7.161 10.74,-15.981 10.74,-26.711 v -0.481 c 0,-21.699 -13.36,-32.91 -26.48,-38.629 19.8,-5.968 35.77,-17.41 35.77,-40.32 v -0.461 c 0,-28.629 -24.08,-45.559 -60.57,-45.559 h -74.17 v 166.942" /><path
         id="path68"
         style="fill:#ffffff;fill-opacity:1;fill-rule:nonzero;stroke:none"
         d="m 5399.14,771.48 v 0.481 c 0,37.918 -27.67,68.918 -65.82,68.918 -38.17,0 -65.35,-30.527 -65.35,-68.457 v -0.461 c 0,-37.922 27.66,-68.93 65.83,-68.93 38.15,0 65.34,30.528 65.34,68.449 z m -150.73,0 v 0.481 c 0,46.019 34.58,86.32 85.39,86.32 50.8,0 84.9,-39.82 84.9,-85.859 v -0.461 c 0,-46.039 -34.58,-86.34 -85.38,-86.34 -50.8,0 -84.91,39.82 -84.91,85.859" /><path
         id="path70"
         style="fill:#ffffff;fill-opacity:1;fill-rule:nonzero;stroke:none"
         d="m 5583.25,855.422 -61.53,-81.793 63.91,-85.149 h -22.41 l -53.43,72.02 -53.42,-72.02 h -21.71 l 63.92,85.149 -61.52,81.793 h 22.18 l 51.03,-68.684 51.04,68.684 h 21.94" /><path
         id="path72"
         style="fill:#ffffff;fill-opacity:1;fill-rule:nonzero;stroke:none"
         d="m 1584.88,1193.62 v 1.57 c 0,160.84 126.14,286.99 296.44,286.99 96.98,0 165.57,-29.18 223.91,-79.64 l -89.87,-108.8 c -39.43,33.12 -78.06,52.03 -133.24,52.03 -79.64,0 -141.14,-66.22 -141.14,-150.58 v -1.57 c 0,-89.89 62.29,-153.75 149.81,-153.75 37.84,0 66.22,7.89 88.3,22.87 v 67.01 h -108.02 v 111.95 h 253.09 V 994.145 c -58.34,-48.887 -138.76,-85.938 -239.68,-85.938 -171.88,0 -299.6,118.263 -299.6,285.413" /><path
         id="path74"
         style="fill:#ffffff;fill-opacity:1;fill-rule:nonzero;stroke:none"
         d="m 2605.11,1193.62 v 1.57 c 0,80.42 -56.76,149.01 -141.12,149.01 -84.36,0 -140.34,-67.8 -140.34,-147.44 v -1.57 c 0,-79.63 57.56,-149.01 141.91,-149.01 83.58,0 139.55,67.8 139.55,147.44 z m -437.56,0 v 1.57 c 0,158.47 127.72,286.99 298.01,286.99 170.31,0 296.45,-126.94 296.45,-285.42 v -1.57 c 0,-158.48 -127.73,-286.983 -298.02,-286.983 -170.3,0 -296.44,126.933 -296.44,285.413" /><path
         id="path76"
         style="fill:#ffffff;fill-opacity:1;fill-rule:nonzero;stroke:none"
         d="m 2993.83,1193.62 v 1.57 c 0,160.84 122.99,286.99 290.14,286.99 112.75,0 185.27,-47.31 234.16,-114.32 l -115.11,-89.1 c -31.54,38.63 -67.8,64.65 -120.63,64.65 -77.27,0 -131.66,-66.23 -131.66,-146.65 v -1.57 c 0,-82.78 54.39,-147.43 131.66,-147.43 57.56,0 91.46,26.8 124.57,67.01 l 115.12,-81.99 c -52.04,-71.753 -122.21,-124.573 -243.63,-124.573 -157.68,0 -284.62,120.623 -284.62,285.413" /><path
         id="path78"
         style="fill:#ffffff;fill-opacity:1;fill-rule:nonzero;stroke:none"
         d="m 3558.36,1161.28 v 309.86 h 154.53 v -306.7 c 0,-79.63 40.2,-117.48 101.7,-117.48 62.28,0 102.5,36.27 102.5,113.54 v 310.64 h 154.53 v -305.91 c 0,-177.394 -101.71,-256.242 -258.61,-256.242 -156.11,0 -254.65,79.637 -254.65,252.292" /><path
         id="path80"
         style="fill:#ffffff;fill-opacity:1;fill-rule:nonzero;stroke:none"
         d="m 4404.33,1143.94 h -116.69 v -101.7 h 118.27 c 47.31,0 73.33,18.12 73.33,50.46 v 1.57 c 0,29.96 -23.66,49.67 -74.91,49.67 z m 52.83,156.89 c 0,30.76 -24.45,47.32 -69.38,47.32 h -100.14 v -96.99 h 96.19 c 46.52,0 73.33,15.78 73.33,48.1 z m -318.52,170.31 h 283.04 c 69.38,0 118.26,-17.35 150.58,-48.89 22.08,-22.86 35.48,-52.03 35.48,-89.87 v -1.59 c 0,-63.85 -36.26,-101.7 -85.15,-122.99 67.03,-22.07 109.59,-59.92 109.59,-134.82 v -1.57 c 0,-94.609 -77.26,-152.168 -208.92,-152.168 h -284.62 v 551.898" /><path
         id="path82"
         style="fill:#ffffff;fill-opacity:1;fill-rule:nonzero;stroke:none"
         d="m 4678.73,1471.14 h 443.87 v -129.3 h -292.5 v -84.37 h 264.91 V 1136.85 H 4830.1 v -87.52 h 296.45 V 919.242 h -447.82 v 551.898" /><path
         id="path84"
         style="fill:#ffffff;fill-opacity:1;fill-rule:nonzero;stroke:none"
         d="m 5139.97,1001.23 85.14,101.71 c 55.19,-43.36 115.11,-66.23 178.98,-66.23 41.79,0 63.86,14.2 63.86,37.85 v 1.58 c 0,23.65 -18.14,35.47 -93.82,53.61 -117.48,26.8 -208.15,59.92 -208.15,172.66 v 1.58 c 0,102.5 81.2,176.61 213.67,176.61 93.81,0 167.14,-25.23 227.06,-73.32 l -76.48,-108.02 c -50.46,36.27 -105.64,54.4 -154.53,54.4 -37.05,0 -55.19,-14.98 -55.19,-35.47 v -1.58 c 0,-25.23 18.92,-36.27 96.19,-53.62 126.15,-27.6 204.99,-68.59 204.99,-171.87 v -1.58 c 0,-112.739 -89.1,-179.763 -223.13,-179.763 -97.76,0 -190,30.754 -258.59,91.453" /><path
         id="path86"
         style="fill:#f3df26;fill-opacity:1;fill-rule:nonzero;stroke:none"
         d="m 795.555,359.859 c -405.395,0 -735.1956,329.813 -735.1956,735.201 0,405.39 329.8006,735.19 735.1956,735.19 405.385,0 735.195,-329.8 735.195,-735.19 0,-405.388 -329.81,-735.201 -735.195,-735.201" /><path
         id="path88"
         style="fill:#e81f2a;fill-opacity:1;fill-rule:nonzero;stroke:none"
         d="m 795.555,1862.75 c -423.985,0 -767.6878,-343.71 -767.6878,-767.69 0,-423.982 343.7028,-767.689 767.6878,-767.689 423.985,0 767.685,343.707 767.685,767.689 0,423.98 -343.7,767.69 -767.685,767.69 z m 0,-64.99 c 387.465,0 702.705,-315.23 702.705,-702.7 0,-387.47 -315.24,-702.701 -702.705,-702.701 -387.473,0 -702.7073,315.231 -702.7073,702.701 0,387.47 315.2343,702.7 702.7073,702.7" /><path
         id="path90"
         style="fill:#e9212a;fill-opacity:1;fill-rule:nonzero;stroke:none"
         d="m 743.172,1583.04 c 1.308,-25.49 2.613,-50.98 3.914,-76.47 1.602,-31.29 50.488,-31.48 48.879,0 -1.309,25.49 -2.61,50.98 -3.918,76.47 -1.602,31.3 -50.488,31.49 -48.875,0 v 0" /><path
         id="path92"
         style="fill:#e9212a;fill-opacity:1;fill-rule:nonzero;stroke:none"
         d="m 981.488,1564.74 c -9.234,-16.42 -18.472,-32.85 -27.703,-49.27 -15.437,-27.45 26.758,-52.11 42.199,-24.67 9.236,16.42 18.476,32.85 27.706,49.27 15.44,27.45 -26.76,52.11 -42.202,24.67 v 0" /><path
         id="path94"
         style="fill:#e9212a;fill-opacity:1;fill-rule:nonzero;stroke:none"
         d="m 1161.28,1502.98 c -12.72,-13.93 -25.44,-27.86 -38.16,-41.79 -8.9,-9.75 -9.63,-24.93 0,-34.56 9.02,-9.02 25.63,-9.78 34.55,0 12.73,13.93 25.44,27.87 38.17,41.8 8.89,9.75 9.63,24.93 0,34.55 -9.03,9.03 -25.63,9.79 -34.56,0 v 0" /><path
         id="path96"
         style="fill:#e9212a;fill-opacity:1;fill-rule:nonzero;stroke:none"
         d="m 1180.9,1229.6 c 20.13,-2.31 40.76,0.13 59.88,6.79 12.45,4.35 20.72,16.74 17.06,30.06 -3.32,12.1 -17.54,21.44 -30.06,17.07 -15.59,-5.43 -30.46,-6.93 -46.88,-5.05 -13.12,1.51 -24.43,-12.31 -24.43,-24.43 0,-14.47 11.27,-22.92 24.43,-24.44 v 0" /><path
         id="path98"
         style="fill:#e9212a;fill-opacity:1;fill-rule:nonzero;stroke:none"
         d="m 1191.18,1071.12 c 20.45,-6.53 41.44,-10.21 62.84,-11.79 13.18,-0.98 24.43,11.93 24.43,24.43 0,14.04 -11.22,23.46 -24.43,24.44 -17.06,1.26 -33.55,4.84 -49.84,10.04 -30.03,9.58 -42.89,-37.58 -13,-47.12 v 0" /><path
         id="path100"
         style="fill:#e9212a;fill-opacity:1;fill-rule:nonzero;stroke:none"
         d="m 1191.38,915.965 c 13.32,-7.731 26.64,-15.465 39.96,-23.199 11.41,-6.625 26.76,-2.641 33.43,8.765 6.67,11.41 2.69,26.785 -8.77,33.434 -13.32,7.734 -26.64,15.469 -39.95,23.203 -11.41,6.625 -26.77,2.641 -33.44,-8.77 -6.67,-11.406 -2.67,-26.789 8.77,-33.433 v 0" /><path
         id="path102"
         style="fill:#e9212a;fill-opacity:1;fill-rule:nonzero;stroke:none"
         d="m 1090.79,750.789 c 14.23,-19.59 31.33,-35.91 52.36,-48.098 11.42,-6.613 26.76,-2.652 33.44,8.77 6.67,11.398 2.68,26.789 -8.77,33.43 -13.58,7.871 -26.21,18.699 -34.84,30.57 -7.73,10.668 -21.24,15.898 -33.42,8.769 -10.53,-6.16 -16.57,-22.699 -8.77,-33.441 v 0" /><path
         id="path104"
         style="fill:#e9212a;fill-opacity:1;fill-rule:nonzero;stroke:none"
         d="m 885.113,706.66 c 11.68,-23.082 29.129,-41.82 50.215,-56.59 10.813,-7.582 27.16,-1.961 33.43,8.77 7.137,12.191 2.078,25.84 -8.762,33.43 -14.082,9.859 -24.812,23.5 -32.683,39.062 -5.958,11.77 -22.54,15.137 -33.442,8.77 -11.969,-7.012 -14.742,-21.622 -8.758,-33.442 v 0" /><path
         id="path106"
         style="fill:#e9212a;fill-opacity:1;fill-rule:nonzero;stroke:none"
         d="m 699.773,678.68 c -4.953,-21.2 -9.914,-42.399 -14.867,-63.598 -7.144,-30.602 39.961,-43.66 47.129,-13 4.953,21.199 9.906,42.406 14.867,63.609 7.149,30.598 -39.961,43.649 -47.129,12.989 v 0" /><path
         id="path108"
         style="fill:#e9212a;fill-opacity:1;fill-rule:nonzero;stroke:none"
         d="m 517.75,689.672 c -10.879,-10.203 -21.758,-20.402 -32.637,-30.602 -9.355,-8.761 -9.511,-25.832 0,-34.558 10.008,-9.192 24.582,-9.352 34.551,0 10.879,10.199 21.758,20.398 32.637,30.597 9.347,8.762 9.512,25.832 0,34.563 -10.008,9.187 -24.578,9.348 -34.551,0 v 0" /><path
         id="path110"
         style="fill:#e9212a;fill-opacity:1;fill-rule:nonzero;stroke:none"
         d="m 399.254,792.16 c -19.973,-8.34 -37.551,-18.91 -53.68,-33.48 -9.797,-8.852 -8.996,-25.559 0,-34.559 9.746,-9.742 24.735,-8.871 34.559,0 8.613,7.777 22.07,16.719 32.109,20.91 12.18,5.078 20.891,16.18 17.071,30.059 -3.157,11.488 -17.801,22.18 -30.059,17.07 v 0" /><path
         id="path112"
         style="fill:#e9212a;fill-opacity:1;fill-rule:nonzero;stroke:none"
         d="m 389.254,985.344 c -21.836,2.172 -44.375,-3.703 -62.637,-15.805 -10.984,-7.281 -15.691,-21.586 -8.769,-33.434 6.386,-10.917 22.382,-16.089 33.437,-8.761 12.102,8.015 23.528,10.562 37.969,9.129 13.152,-1.305 24.434,12.168 24.434,24.437 0,14.305 -11.25,23.125 -24.434,24.434 v 0" /><path
         id="path114"
         style="fill:#e9212a;fill-opacity:1;fill-rule:nonzero;stroke:none"
         d="m 412.566,1185.11 c -21.078,0 -42.14,0 -63.203,0 -31.449,0 -31.496,-48.87 0,-48.87 21.063,0 42.125,0 63.203,0 31.446,0 31.493,48.87 0,48.87 v 0" /><path
         id="path116"
         style="fill:#e9212a;fill-opacity:1;fill-rule:nonzero;stroke:none"
         d="m 425.738,1370.2 c -6.972,1.28 -12.812,6.7 -20.437,12.68 -9.856,7.71 -20.129,15.59 -32.766,17.92 -12.961,2.39 -26.347,-3.57 -30.058,-17.07 -3.262,-11.87 4.023,-27.65 17.07,-30.05 6.973,-1.29 12.812,-6.7 20.441,-12.68 9.852,-7.71 20.125,-15.6 32.762,-17.93 12.961,-2.39 26.348,3.57 30.059,17.07 3.261,11.88 -4.024,27.65 -17.071,30.06 v 0" /><path
         id="path118"
         style="fill:#e9212a;fill-opacity:1;fill-rule:nonzero;stroke:none"
         d="m 596.078,1457.28 c -11.465,12.19 -19.148,26.4 -23.512,42.52 -8.214,30.32 -55.371,17.45 -47.121,-13 6.551,-24.2 18.907,-45.83 36.075,-64.07 21.601,-22.96 56.113,11.65 34.558,34.55 v 0" /><path
         id="path120"
         style="fill:#ffffff;fill-opacity:1;fill-rule:nonzero;stroke:none"
         d="m 485.281,798.941 187.684,-32.972 219.258,32.972 184.367,129.258 -2.36,456.381 -27.3,25.55 -324.473,-8.99 -237.176,-169.59 V 798.941" /><g
         id="g122"><g
           clip-path="url(#clipPath128)"
           id="g124"><g
             clip-path="url(#clipPath134)"
             id="g130"><path
               id="path136"
               style="fill:#79561e;fill-opacity:1;fill-rule:nonzero;stroke:none"
               d="m 1068.43,1323.46 c 0,-14.69 -11.9,-26.6 -26.6,-26.6 -14.69,0 -26.6,11.91 -26.6,26.6 0,14.69 11.91,26.6 26.6,26.6 14.7,0 26.6,-11.91 26.6,-26.6" /><path
               id="path138"
               style="fill:#79561e;fill-opacity:1;fill-rule:nonzero;stroke:none"
               d="m 997.203,1323.46 c 0,-14.69 -11.914,-26.6 -26.601,-26.6 -14.688,0 -26.602,11.91 -26.602,26.6 0,14.69 11.914,26.6 26.602,26.6 14.687,0 26.601,-11.91 26.601,-26.6" /><path
               id="path140"
               style="fill:#79561e;fill-opacity:1;fill-rule:nonzero;stroke:none"
               d="m 1104.05,1394.69 c 0,-14.69 -11.91,-26.6 -26.6,-26.6 -14.69,0 -26.59,11.91 -26.59,26.6 0,14.69 11.9,26.6 26.59,26.6 14.69,0 26.6,-11.91 26.6,-26.6" /><path
               id="path142"
               style="fill:#79561e;fill-opacity:1;fill-rule:nonzero;stroke:none"
               d="m 1032.82,1394.69 c 0,-14.69 -11.91,-26.6 -26.6,-26.6 -14.689,0 -26.607,11.91 -26.607,26.6 0,14.69 11.918,26.6 26.607,26.6 14.69,0 26.6,-11.91 26.6,-26.6" /><path
               id="path144"
               style="fill:#79561e;fill-opacity:1;fill-rule:nonzero;stroke:none"
               d="m 961.59,1394.69 c 0,-14.69 -11.914,-26.6 -26.602,-26.6 -14.699,0 -26.601,11.91 -26.601,26.6 0,14.69 11.902,26.6 26.601,26.6 14.688,0 26.602,-11.91 26.602,-26.6" /></g></g></g><g
         id="g146"><g
           clip-path="url(#clipPath152)"
           id="g148"><g
             clip-path="url(#clipPath158)"
             id="g154"><path
               id="path160"
               style="fill:#79561e;fill-opacity:1;fill-rule:nonzero;stroke:none"
               d="m 1068.43,1180.99 c 0,-14.69 -11.9,-26.6 -26.6,-26.6 -14.69,0 -26.6,11.91 -26.6,26.6 0,14.69 11.91,26.6 26.6,26.6 14.7,0 26.6,-11.91 26.6,-26.6" /><path
               id="path162"
               style="fill:#79561e;fill-opacity:1;fill-rule:nonzero;stroke:none"
               d="m 997.203,1180.99 c 0,-14.69 -11.914,-26.6 -26.601,-26.6 -14.688,0 -26.602,11.91 -26.602,26.6 0,14.69 11.914,26.6 26.602,26.6 14.687,0 26.601,-11.91 26.601,-26.6" /><path
               id="path164"
               style="fill:#79561e;fill-opacity:1;fill-rule:nonzero;stroke:none"
               d="m 1104.05,1252.22 c 0,-14.69 -11.91,-26.59 -26.6,-26.59 -14.69,0 -26.59,11.9 -26.59,26.59 0,14.7 11.9,26.6 26.59,26.6 14.69,0 26.6,-11.9 26.6,-26.6" /><path
               id="path166"
               style="fill:#79561e;fill-opacity:1;fill-rule:nonzero;stroke:none"
               d="m 1032.82,1252.22 c 0,-14.69 -11.91,-26.59 -26.6,-26.59 -14.689,0 -26.607,11.9 -26.607,26.59 0,14.7 11.918,26.6 26.607,26.6 14.69,0 26.6,-11.9 26.6,-26.6" /><path
               id="path168"
               style="fill:#79561e;fill-opacity:1;fill-rule:nonzero;stroke:none"
               d="m 961.59,1252.22 c 0,-14.69 -11.914,-26.59 -26.602,-26.59 -14.699,0 -26.601,11.9 -26.601,26.59 0,14.7 11.902,26.6 26.601,26.6 14.688,0 26.602,-11.9 26.602,-26.6" /><path
               id="path170"
               style="fill:#79561e;fill-opacity:1;fill-rule:nonzero;stroke:none"
               d="m 1068.43,1323.46 c 0,-14.69 -11.9,-26.6 -26.6,-26.6 -14.69,0 -26.6,11.91 -26.6,26.6 0,14.69 11.91,26.6 26.6,26.6 14.7,0 26.6,-11.91 26.6,-26.6" /><path
               id="path172"
               style="fill:#79561e;fill-opacity:1;fill-rule:nonzero;stroke:none"
               d="m 997.203,1323.46 c 0,-14.69 -11.914,-26.6 -26.601,-26.6 -14.688,0 -26.602,11.91 -26.602,26.6 0,14.69 11.914,26.6 26.602,26.6 14.687,0 26.601,-11.91 26.601,-26.6" /></g></g></g><g
         id="g174"><g
           clip-path="url(#clipPath180)"
           id="g176"><g
             clip-path="url(#clipPath186)"
             id="g182"><path
               id="path188"
               style="fill:#79561e;fill-opacity:1;fill-rule:nonzero;stroke:none"
               d="m 1068.43,1038.52 c 0,-14.69 -11.9,-26.6 -26.6,-26.6 -14.69,0 -26.6,11.91 -26.6,26.6 0,14.69 11.91,26.61 26.6,26.61 14.7,0 26.6,-11.92 26.6,-26.61" /><path
               id="path190"
               style="fill:#79561e;fill-opacity:1;fill-rule:nonzero;stroke:none"
               d="m 997.203,1038.52 c 0,-14.69 -11.914,-26.6 -26.601,-26.6 -14.688,0 -26.602,11.91 -26.602,26.6 0,14.69 11.914,26.61 26.602,26.61 14.687,0 26.601,-11.92 26.601,-26.61" /><path
               id="path192"
               style="fill:#79561e;fill-opacity:1;fill-rule:nonzero;stroke:none"
               d="m 1104.05,1109.76 c 0,-14.69 -11.91,-26.6 -26.6,-26.6 -14.69,0 -26.59,11.91 -26.59,26.6 0,14.69 11.9,26.6 26.59,26.6 14.69,0 26.6,-11.91 26.6,-26.6" /><path
               id="path194"
               style="fill:#79561e;fill-opacity:1;fill-rule:nonzero;stroke:none"
               d="m 1032.82,1109.76 c 0,-14.69 -11.91,-26.6 -26.6,-26.6 -14.689,0 -26.607,11.91 -26.607,26.6 0,14.69 11.918,26.6 26.607,26.6 14.69,0 26.6,-11.91 26.6,-26.6" /><path
               id="path196"
               style="fill:#79561e;fill-opacity:1;fill-rule:nonzero;stroke:none"
               d="m 961.59,1109.76 c 0,-14.69 -11.914,-26.6 -26.602,-26.6 -14.699,0 -26.601,11.91 -26.601,26.6 0,14.69 11.902,26.6 26.601,26.6 14.688,0 26.602,-11.91 26.602,-26.6" /><path
               id="path198"
               style="fill:#79561e;fill-opacity:1;fill-rule:nonzero;stroke:none"
               d="m 1068.43,1180.99 c 0,-14.69 -11.9,-26.6 -26.6,-26.6 -14.69,0 -26.6,11.91 -26.6,26.6 0,14.69 11.91,26.6 26.6,26.6 14.7,0 26.6,-11.91 26.6,-26.6" /><path
               id="path200"
               style="fill:#79561e;fill-opacity:1;fill-rule:nonzero;stroke:none"
               d="m 997.203,1180.99 c 0,-14.69 -11.914,-26.6 -26.601,-26.6 -14.688,0 -26.602,11.91 -26.602,26.6 0,14.69 11.914,26.6 26.602,26.6 14.687,0 26.601,-11.91 26.601,-26.6" /></g></g></g><g
         id="g202"><g
           clip-path="url(#clipPath208)"
           id="g204"><g
             clip-path="url(#clipPath214)"
             id="g210"><path
               id="path216"
               style="fill:#79561e;fill-opacity:1;fill-rule:nonzero;stroke:none"
               d="m 1068.43,896.059 c 0,-14.688 -11.9,-26.598 -26.6,-26.598 -14.69,0 -26.6,11.91 -26.6,26.598 0,14.687 11.91,26.593 26.6,26.593 14.7,0 26.6,-11.906 26.6,-26.593" /><path
               id="path218"
               style="fill:#79561e;fill-opacity:1;fill-rule:nonzero;stroke:none"
               d="m 997.203,896.059 c 0,-14.688 -11.914,-26.598 -26.601,-26.598 -14.688,0 -26.602,11.91 -26.602,26.598 0,14.687 11.914,26.593 26.602,26.593 14.687,0 26.601,-11.906 26.601,-26.593" /><path
               id="path220"
               style="fill:#79561e;fill-opacity:1;fill-rule:nonzero;stroke:none"
               d="m 1104.05,967.289 c 0,-14.687 -11.91,-26.598 -26.6,-26.598 -14.69,0 -26.59,11.911 -26.59,26.598 0,14.691 11.9,26.602 26.59,26.602 14.69,0 26.6,-11.911 26.6,-26.602" /><path
               id="path222"
               style="fill:#79561e;fill-opacity:1;fill-rule:nonzero;stroke:none"
               d="m 1032.82,967.289 c 0,-14.687 -11.91,-26.598 -26.6,-26.598 -14.689,0 -26.607,11.911 -26.607,26.598 0,14.691 11.918,26.602 26.607,26.602 14.69,0 26.6,-11.911 26.6,-26.602" /><path
               id="path224"
               style="fill:#79561e;fill-opacity:1;fill-rule:nonzero;stroke:none"
               d="m 961.59,967.289 c 0,-14.687 -11.914,-26.598 -26.602,-26.598 -14.699,0 -26.601,11.911 -26.601,26.598 0,14.691 11.902,26.602 26.601,26.602 14.688,0 26.602,-11.911 26.602,-26.602" /><path
               id="path226"
               style="fill:#79561e;fill-opacity:1;fill-rule:nonzero;stroke:none"
               d="m 1068.43,1038.52 c 0,-14.69 -11.9,-26.6 -26.6,-26.6 -14.69,0 -26.6,11.91 -26.6,26.6 0,14.69 11.91,26.61 26.6,26.61 14.7,0 26.6,-11.92 26.6,-26.61" /><path
               id="path228"
               style="fill:#79561e;fill-opacity:1;fill-rule:nonzero;stroke:none"
               d="m 997.203,1038.52 c 0,-14.69 -11.914,-26.6 -26.601,-26.6 -14.688,0 -26.602,11.91 -26.602,26.6 0,14.69 11.914,26.61 26.602,26.61 14.687,0 26.601,-11.92 26.601,-26.61" /></g></g></g><g
         id="g230"><g
           clip-path="url(#clipPath236)"
           id="g232"><g
             clip-path="url(#clipPath242)"
             id="g238"><path
               id="path244"
               style="fill:#79561e;fill-opacity:1;fill-rule:nonzero;stroke:none"
               d="m 1032.82,824.82 c 0,-14.691 -11.91,-26.601 -26.6,-26.601 -14.689,0 -26.607,11.91 -26.607,26.601 0,14.692 11.918,26.602 26.607,26.602 14.69,0 26.6,-11.91 26.6,-26.602" /><path
               id="path246"
               style="fill:#79561e;fill-opacity:1;fill-rule:nonzero;stroke:none"
               d="m 961.59,824.82 c 0,-14.691 -11.914,-26.601 -26.602,-26.601 -14.699,0 -26.601,11.91 -26.601,26.601 0,14.692 11.902,26.602 26.601,26.602 14.688,0 26.602,-11.91 26.602,-26.602" /><path
               id="path248"
               style="fill:#79561e;fill-opacity:1;fill-rule:nonzero;stroke:none"
               d="m 1068.43,896.059 c 0,-14.688 -11.9,-26.598 -26.6,-26.598 -14.69,0 -26.6,11.91 -26.6,26.598 0,14.687 11.91,26.593 26.6,26.593 14.7,0 26.6,-11.906 26.6,-26.593" /><path
               id="path250"
               style="fill:#79561e;fill-opacity:1;fill-rule:nonzero;stroke:none"
               d="m 997.203,896.059 c 0,-14.688 -11.914,-26.598 -26.601,-26.598 -14.688,0 -26.602,11.91 -26.602,26.598 0,14.687 11.914,26.593 26.602,26.593 14.687,0 26.601,-11.906 26.601,-26.593" /></g></g></g><g
         id="g252"><g
           clip-path="url(#clipPath258)"
           id="g254"><g
             clip-path="url(#clipPath264)"
             id="g260"><path
               id="path266"
               style="fill:#79561e;fill-opacity:1;fill-rule:nonzero;stroke:none"
               d="m 925.973,1323.46 c 0,-14.69 -11.914,-26.6 -26.602,-26.6 -14.695,0 -26.601,11.91 -26.601,26.6 0,14.69 11.906,26.6 26.601,26.6 14.688,0 26.602,-11.91 26.602,-26.6" /><path
               id="path268"
               style="fill:#79561e;fill-opacity:1;fill-rule:nonzero;stroke:none"
               d="m 854.734,1323.46 c 0,-14.69 -11.906,-26.6 -26.601,-26.6 -14.688,0 -26.602,11.91 -26.602,26.6 0,14.69 11.914,26.6 26.602,26.6 14.695,0 26.601,-11.91 26.601,-26.6" /><path
               id="path270"
               style="fill:#79561e;fill-opacity:1;fill-rule:nonzero;stroke:none"
               d="m 961.59,1394.69 c 0,-14.69 -11.914,-26.6 -26.602,-26.6 -14.699,0 -26.601,11.91 -26.601,26.6 0,14.69 11.902,26.6 26.601,26.6 14.688,0 26.602,-11.91 26.602,-26.6" /><path
               id="path272"
               style="fill:#79561e;fill-opacity:1;fill-rule:nonzero;stroke:none"
               d="m 890.348,1394.69 c 0,-14.69 -11.903,-26.6 -26.59,-26.6 -14.699,0 -26.602,11.91 -26.602,26.6 0,14.69 11.903,26.6 26.602,26.6 14.687,0 26.59,-11.91 26.59,-26.6" /><path
               id="path274"
               style="fill:#79561e;fill-opacity:1;fill-rule:nonzero;stroke:none"
               d="m 819.117,1394.69 c 0,-14.69 -11.902,-26.6 -26.601,-26.6 -14.688,0 -26.602,11.91 -26.602,26.6 0,14.69 11.914,26.6 26.602,26.6 14.699,0 26.601,-11.91 26.601,-26.6" /></g></g></g><g
         id="g276"><g
           clip-path="url(#clipPath282)"
           id="g278"><g
             clip-path="url(#clipPath288)"
             id="g284"><path
               id="path290"
               style="fill:#79561e;fill-opacity:1;fill-rule:nonzero;stroke:none"
               d="m 925.973,1180.99 c 0,-14.69 -11.914,-26.6 -26.602,-26.6 -14.695,0 -26.601,11.91 -26.601,26.6 0,14.69 11.906,26.6 26.601,26.6 14.688,0 26.602,-11.91 26.602,-26.6" /><path
               id="path292"
               style="fill:#79561e;fill-opacity:1;fill-rule:nonzero;stroke:none"
               d="m 854.734,1180.99 c 0,-14.69 -11.906,-26.6 -26.601,-26.6 -14.688,0 -26.602,11.91 -26.602,26.6 0,14.69 11.914,26.6 26.602,26.6 14.695,0 26.601,-11.91 26.601,-26.6" /><path
               id="path294"
               style="fill:#79561e;fill-opacity:1;fill-rule:nonzero;stroke:none"
               d="m 961.59,1252.22 c 0,-14.69 -11.914,-26.59 -26.602,-26.59 -14.699,0 -26.601,11.9 -26.601,26.59 0,14.7 11.902,26.6 26.601,26.6 14.688,0 26.602,-11.9 26.602,-26.6" /><path
               id="path296"
               style="fill:#79561e;fill-opacity:1;fill-rule:nonzero;stroke:none"
               d="m 890.348,1252.22 c 0,-14.69 -11.903,-26.59 -26.59,-26.59 -14.699,0 -26.602,11.9 -26.602,26.59 0,14.7 11.903,26.6 26.602,26.6 14.687,0 26.59,-11.9 26.59,-26.6" /><path
               id="path298"
               style="fill:#79561e;fill-opacity:1;fill-rule:nonzero;stroke:none"
               d="m 819.117,1252.22 c 0,-14.69 -11.902,-26.59 -26.601,-26.59 -14.688,0 -26.602,11.9 -26.602,26.59 0,14.7 11.914,26.6 26.602,26.6 14.699,0 26.601,-11.9 26.601,-26.6" /><path
               id="path300"
               style="fill:#79561e;fill-opacity:1;fill-rule:nonzero;stroke:none"
               d="m 925.973,1323.46 c 0,-14.69 -11.914,-26.6 -26.602,-26.6 -14.695,0 -26.601,11.91 -26.601,26.6 0,14.69 11.906,26.6 26.601,26.6 14.688,0 26.602,-11.91 26.602,-26.6" /><path
               id="path302"
               style="fill:#79561e;fill-opacity:1;fill-rule:nonzero;stroke:none"
               d="m 854.734,1323.46 c 0,-14.69 -11.906,-26.6 -26.601,-26.6 -14.688,0 -26.602,11.91 -26.602,26.6 0,14.69 11.914,26.6 26.602,26.6 14.695,0 26.601,-11.91 26.601,-26.6" /></g></g></g><g
         id="g304"><g
           clip-path="url(#clipPath310)"
           id="g306"><g
             clip-path="url(#clipPath316)"
             id="g312"><path
               id="path318"
               style="fill:#79561e;fill-opacity:1;fill-rule:nonzero;stroke:none"
               d="m 925.973,1038.52 c 0,-14.69 -11.914,-26.6 -26.602,-26.6 -14.695,0 -26.601,11.91 -26.601,26.6 0,14.69 11.906,26.61 26.601,26.61 14.688,0 26.602,-11.92 26.602,-26.61" /><path
               id="path320"
               style="fill:#79561e;fill-opacity:1;fill-rule:nonzero;stroke:none"
               d="m 854.734,1038.52 c 0,-14.69 -11.906,-26.6 -26.601,-26.6 -14.688,0 -26.602,11.91 -26.602,26.6 0,14.69 11.914,26.61 26.602,26.61 14.695,0 26.601,-11.92 26.601,-26.61" /><path
               id="path322"
               style="fill:#79561e;fill-opacity:1;fill-rule:nonzero;stroke:none"
               d="m 961.59,1109.76 c 0,-14.69 -11.914,-26.6 -26.602,-26.6 -14.699,0 -26.601,11.91 -26.601,26.6 0,14.69 11.902,26.6 26.601,26.6 14.688,0 26.602,-11.91 26.602,-26.6" /><path
               id="path324"
               style="fill:#79561e;fill-opacity:1;fill-rule:nonzero;stroke:none"
               d="m 890.348,1109.76 c 0,-14.69 -11.903,-26.6 -26.59,-26.6 -14.699,0 -26.602,11.91 -26.602,26.6 0,14.69 11.903,26.6 26.602,26.6 14.687,0 26.59,-11.91 26.59,-26.6" /><path
               id="path326"
               style="fill:#79561e;fill-opacity:1;fill-rule:nonzero;stroke:none"
               d="m 819.117,1109.76 c 0,-14.69 -11.902,-26.6 -26.601,-26.6 -14.688,0 -26.602,11.91 -26.602,26.6 0,14.69 11.914,26.6 26.602,26.6 14.699,0 26.601,-11.91 26.601,-26.6" /><path
               id="path328"
               style="fill:#79561e;fill-opacity:1;fill-rule:nonzero;stroke:none"
               d="m 925.973,1180.99 c 0,-14.69 -11.914,-26.6 -26.602,-26.6 -14.695,0 -26.601,11.91 -26.601,26.6 0,14.69 11.906,26.6 26.601,26.6 14.688,0 26.602,-11.91 26.602,-26.6" /><path
               id="path330"
               style="fill:#79561e;fill-opacity:1;fill-rule:nonzero;stroke:none"
               d="m 854.734,1180.99 c 0,-14.69 -11.906,-26.6 -26.601,-26.6 -14.688,0 -26.602,11.91 -26.602,26.6 0,14.69 11.914,26.6 26.602,26.6 14.695,0 26.601,-11.91 26.601,-26.6" /></g></g></g><g
         id="g332"><g
           clip-path="url(#clipPath338)"
           id="g334"><g
             clip-path="url(#clipPath344)"
             id="g340"><path
               id="path346"
               style="fill:#79561e;fill-opacity:1;fill-rule:nonzero;stroke:none"
               d="m 925.973,896.059 c 0,-14.688 -11.914,-26.598 -26.602,-26.598 -14.695,0 -26.601,11.91 -26.601,26.598 0,14.687 11.906,26.593 26.601,26.593 14.688,0 26.602,-11.906 26.602,-26.593" /><path
               id="path348"
               style="fill:#79561e;fill-opacity:1;fill-rule:nonzero;stroke:none"
               d="m 854.734,896.059 c 0,-14.688 -11.906,-26.598 -26.601,-26.598 -14.688,0 -26.602,11.91 -26.602,26.598 0,14.687 11.914,26.593 26.602,26.593 14.695,0 26.601,-11.906 26.601,-26.593" /><path
               id="path350"
               style="fill:#79561e;fill-opacity:1;fill-rule:nonzero;stroke:none"
               d="m 961.59,967.289 c 0,-14.687 -11.914,-26.598 -26.602,-26.598 -14.699,0 -26.601,11.911 -26.601,26.598 0,14.691 11.902,26.602 26.601,26.602 14.688,0 26.602,-11.911 26.602,-26.602" /><path
               id="path352"
               style="fill:#79561e;fill-opacity:1;fill-rule:nonzero;stroke:none"
               d="m 890.348,967.289 c 0,-14.687 -11.903,-26.598 -26.59,-26.598 -14.699,0 -26.602,11.911 -26.602,26.598 0,14.691 11.903,26.602 26.602,26.602 14.687,0 26.59,-11.911 26.59,-26.602" /><path
               id="path354"
               style="fill:#79561e;fill-opacity:1;fill-rule:nonzero;stroke:none"
               d="m 819.117,967.289 c 0,-14.687 -11.902,-26.598 -26.601,-26.598 -14.688,0 -26.602,11.911 -26.602,26.598 0,14.691 11.914,26.602 26.602,26.602 14.699,0 26.601,-11.911 26.601,-26.602" /><path
               id="path356"
               style="fill:#79561e;fill-opacity:1;fill-rule:nonzero;stroke:none"
               d="m 925.973,1038.52 c 0,-14.69 -11.914,-26.6 -26.602,-26.6 -14.695,0 -26.601,11.91 -26.601,26.6 0,14.69 11.906,26.61 26.601,26.61 14.688,0 26.602,-11.92 26.602,-26.61" /><path
               id="path358"
               style="fill:#79561e;fill-opacity:1;fill-rule:nonzero;stroke:none"
               d="m 854.734,1038.52 c 0,-14.69 -11.906,-26.6 -26.601,-26.6 -14.688,0 -26.602,11.91 -26.602,26.6 0,14.69 11.914,26.61 26.602,26.61 14.695,0 26.601,-11.92 26.601,-26.61" /></g></g></g><g
         id="g360"><g
           clip-path="url(#clipPath366)"
           id="g362"><g
             clip-path="url(#clipPath372)"
             id="g368"><path
               id="path374"
               style="fill:#79561e;fill-opacity:1;fill-rule:nonzero;stroke:none"
               d="m 961.59,824.82 c 0,-14.691 -11.914,-26.601 -26.602,-26.601 -14.699,0 -26.601,11.91 -26.601,26.601 0,14.692 11.902,26.602 26.601,26.602 14.688,0 26.602,-11.91 26.602,-26.602" /><path
               id="path376"
               style="fill:#79561e;fill-opacity:1;fill-rule:nonzero;stroke:none"
               d="m 890.348,824.82 c 0,-14.691 -11.903,-26.601 -26.59,-26.601 -14.699,0 -26.602,11.91 -26.602,26.601 0,14.692 11.903,26.602 26.602,26.602 14.687,0 26.59,-11.91 26.59,-26.602" /><path
               id="path378"
               style="fill:#79561e;fill-opacity:1;fill-rule:nonzero;stroke:none"
               d="m 819.117,824.82 c 0,-14.691 -11.902,-26.601 -26.601,-26.601 -14.688,0 -26.602,11.91 -26.602,26.601 0,14.692 11.914,26.602 26.602,26.602 14.699,0 26.601,-11.91 26.601,-26.602" /><path
               id="path380"
               style="fill:#79561e;fill-opacity:1;fill-rule:nonzero;stroke:none"
               d="m 925.973,896.059 c 0,-14.688 -11.914,-26.598 -26.602,-26.598 -14.695,0 -26.601,11.91 -26.601,26.598 0,14.687 11.906,26.593 26.601,26.593 14.688,0 26.602,-11.906 26.602,-26.593" /><path
               id="path382"
               style="fill:#79561e;fill-opacity:1;fill-rule:nonzero;stroke:none"
               d="m 854.734,896.059 c 0,-14.688 -11.906,-26.598 -26.601,-26.598 -14.688,0 -26.602,11.91 -26.602,26.598 0,14.687 11.914,26.593 26.602,26.593 14.695,0 26.601,-11.906 26.601,-26.593" /></g></g></g><g
         id="g384"><g
           clip-path="url(#clipPath390)"
           id="g386"><g
             clip-path="url(#clipPath396)"
             id="g392"><path
               id="path398"
               style="fill:#79561e;fill-opacity:1;fill-rule:nonzero;stroke:none"
               d="m 783.504,1323.46 c 0,-14.69 -11.914,-26.6 -26.602,-26.6 -14.687,0 -26.601,11.91 -26.601,26.6 0,14.69 11.914,26.6 26.601,26.6 14.688,0 26.602,-11.91 26.602,-26.6" /><path
               id="path400"
               style="fill:#79561e;fill-opacity:1;fill-rule:nonzero;stroke:none"
               d="m 712.273,1323.46 c 0,-14.69 -11.914,-26.6 -26.601,-26.6 -14.699,0 -26.602,11.91 -26.602,26.6 0,14.69 11.903,26.6 26.602,26.6 14.687,0 26.601,-11.91 26.601,-26.6" /><path
               id="path402"
               style="fill:#79561e;fill-opacity:1;fill-rule:nonzero;stroke:none"
               d="m 819.117,1394.69 c 0,-14.69 -11.902,-26.6 -26.601,-26.6 -14.688,0 -26.602,11.91 -26.602,26.6 0,14.69 11.914,26.6 26.602,26.6 14.699,0 26.601,-11.91 26.601,-26.6" /><path
               id="path404"
               style="fill:#79561e;fill-opacity:1;fill-rule:nonzero;stroke:none"
               d="m 747.887,1394.69 c 0,-14.69 -11.914,-26.6 -26.602,-26.6 -14.695,0 -26.601,11.91 -26.601,26.6 0,14.69 11.906,26.6 26.601,26.6 14.688,0 26.602,-11.91 26.602,-26.6" /><path
               id="path406"
               style="fill:#79561e;fill-opacity:1;fill-rule:nonzero;stroke:none"
               d="m 676.648,1394.69 c 0,-14.69 -11.906,-26.6 -26.593,-26.6 -14.696,0 -26.602,11.91 -26.602,26.6 0,14.69 11.906,26.6 26.602,26.6 14.687,0 26.593,-11.91 26.593,-26.6" /></g></g></g><g
         id="g408"><g
           clip-path="url(#clipPath414)"
           id="g410"><g
             clip-path="url(#clipPath420)"
             id="g416"><path
               id="path422"
               style="fill:#79561e;fill-opacity:1;fill-rule:nonzero;stroke:none"
               d="m 783.504,1180.99 c 0,-14.69 -11.914,-26.6 -26.602,-26.6 -14.687,0 -26.601,11.91 -26.601,26.6 0,14.69 11.914,26.6 26.601,26.6 14.688,0 26.602,-11.91 26.602,-26.6" /><path
               id="path424"
               style="fill:#79561e;fill-opacity:1;fill-rule:nonzero;stroke:none"
               d="m 712.273,1180.99 c 0,-14.69 -11.914,-26.6 -26.601,-26.6 -14.699,0 -26.602,11.91 -26.602,26.6 0,14.69 11.903,26.6 26.602,26.6 14.687,0 26.601,-11.91 26.601,-26.6" /><path
               id="path426"
               style="fill:#79561e;fill-opacity:1;fill-rule:nonzero;stroke:none"
               d="m 819.117,1252.22 c 0,-14.69 -11.902,-26.59 -26.601,-26.59 -14.688,0 -26.602,11.9 -26.602,26.59 0,14.7 11.914,26.6 26.602,26.6 14.699,0 26.601,-11.9 26.601,-26.6" /><path
               id="path428"
               style="fill:#79561e;fill-opacity:1;fill-rule:nonzero;stroke:none"
               d="m 747.887,1252.22 c 0,-14.69 -11.914,-26.59 -26.602,-26.59 -14.695,0 -26.601,11.9 -26.601,26.59 0,14.7 11.906,26.6 26.601,26.6 14.688,0 26.602,-11.9 26.602,-26.6" /><path
               id="path430"
               style="fill:#79561e;fill-opacity:1;fill-rule:nonzero;stroke:none"
               d="m 676.648,1252.22 c 0,-14.69 -11.906,-26.59 -26.593,-26.59 -14.696,0 -26.602,11.9 -26.602,26.59 0,14.7 11.906,26.6 26.602,26.6 14.687,0 26.593,-11.9 26.593,-26.6" /><path
               id="path432"
               style="fill:#79561e;fill-opacity:1;fill-rule:nonzero;stroke:none"
               d="m 783.504,1323.46 c 0,-14.69 -11.914,-26.6 -26.602,-26.6 -14.687,0 -26.601,11.91 -26.601,26.6 0,14.69 11.914,26.6 26.601,26.6 14.688,0 26.602,-11.91 26.602,-26.6" /><path
               id="path434"
               style="fill:#79561e;fill-opacity:1;fill-rule:nonzero;stroke:none"
               d="m 712.273,1323.46 c 0,-14.69 -11.914,-26.6 -26.601,-26.6 -14.699,0 -26.602,11.91 -26.602,26.6 0,14.69 11.903,26.6 26.602,26.6 14.687,0 26.601,-11.91 26.601,-26.6" /></g></g></g><g
         id="g436"><g
           clip-path="url(#clipPath442)"
           id="g438"><g
             clip-path="url(#clipPath448)"
             id="g444"><path
               id="path450"
               style="fill:#79561e;fill-opacity:1;fill-rule:nonzero;stroke:none"
               d="m 783.504,1038.52 c 0,-14.69 -11.914,-26.6 -26.602,-26.6 -14.687,0 -26.601,11.91 -26.601,26.6 0,14.69 11.914,26.61 26.601,26.61 14.688,0 26.602,-11.92 26.602,-26.61" /><path
               id="path452"
               style="fill:#79561e;fill-opacity:1;fill-rule:nonzero;stroke:none"
               d="m 712.273,1038.52 c 0,-14.69 -11.914,-26.6 -26.601,-26.6 -14.699,0 -26.602,11.91 -26.602,26.6 0,14.69 11.903,26.61 26.602,26.61 14.687,0 26.601,-11.92 26.601,-26.61" /><path
               id="path454"
               style="fill:#79561e;fill-opacity:1;fill-rule:nonzero;stroke:none"
               d="m 819.117,1109.76 c 0,-14.69 -11.902,-26.6 -26.601,-26.6 -14.688,0 -26.602,11.91 -26.602,26.6 0,14.69 11.914,26.6 26.602,26.6 14.699,0 26.601,-11.91 26.601,-26.6" /><path
               id="path456"
               style="fill:#79561e;fill-opacity:1;fill-rule:nonzero;stroke:none"
               d="m 747.887,1109.76 c 0,-14.69 -11.914,-26.6 -26.602,-26.6 -14.695,0 -26.601,11.91 -26.601,26.6 0,14.69 11.906,26.6 26.601,26.6 14.688,0 26.602,-11.91 26.602,-26.6" /><path
               id="path458"
               style="fill:#79561e;fill-opacity:1;fill-rule:nonzero;stroke:none"
               d="m 676.648,1109.76 c 0,-14.69 -11.906,-26.6 -26.593,-26.6 -14.696,0 -26.602,11.91 -26.602,26.6 0,14.69 11.906,26.6 26.602,26.6 14.687,0 26.593,-11.91 26.593,-26.6" /><path
               id="path460"
               style="fill:#79561e;fill-opacity:1;fill-rule:nonzero;stroke:none"
               d="m 783.504,1180.99 c 0,-14.69 -11.914,-26.6 -26.602,-26.6 -14.687,0 -26.601,11.91 -26.601,26.6 0,14.69 11.914,26.6 26.601,26.6 14.688,0 26.602,-11.91 26.602,-26.6" /><path
               id="path462"
               style="fill:#79561e;fill-opacity:1;fill-rule:nonzero;stroke:none"
               d="m 712.273,1180.99 c 0,-14.69 -11.914,-26.6 -26.601,-26.6 -14.699,0 -26.602,11.91 -26.602,26.6 0,14.69 11.903,26.6 26.602,26.6 14.687,0 26.601,-11.91 26.601,-26.6" /></g></g></g><g
         id="g464"><g
           clip-path="url(#clipPath470)"
           id="g466"><g
             clip-path="url(#clipPath476)"
             id="g472"><path
               id="path478"
               style="fill:#79561e;fill-opacity:1;fill-rule:nonzero;stroke:none"
               d="m 783.504,896.059 c 0,-14.688 -11.914,-26.598 -26.602,-26.598 -14.687,0 -26.601,11.91 -26.601,26.598 0,14.687 11.914,26.593 26.601,26.593 14.688,0 26.602,-11.906 26.602,-26.593" /><path
               id="path480"
               style="fill:#79561e;fill-opacity:1;fill-rule:nonzero;stroke:none"
               d="m 712.273,896.059 c 0,-14.688 -11.914,-26.598 -26.601,-26.598 -14.699,0 -26.602,11.91 -26.602,26.598 0,14.687 11.903,26.593 26.602,26.593 14.687,0 26.601,-11.906 26.601,-26.593" /><path
               id="path482"
               style="fill:#79561e;fill-opacity:1;fill-rule:nonzero;stroke:none"
               d="m 819.117,967.289 c 0,-14.687 -11.902,-26.598 -26.601,-26.598 -14.688,0 -26.602,11.911 -26.602,26.598 0,14.691 11.914,26.602 26.602,26.602 14.699,0 26.601,-11.911 26.601,-26.602" /><path
               id="path484"
               style="fill:#79561e;fill-opacity:1;fill-rule:nonzero;stroke:none"
               d="m 747.887,967.289 c 0,-14.687 -11.914,-26.598 -26.602,-26.598 -14.695,0 -26.601,11.911 -26.601,26.598 0,14.691 11.906,26.602 26.601,26.602 14.688,0 26.602,-11.911 26.602,-26.602" /><path
               id="path486"
               style="fill:#79561e;fill-opacity:1;fill-rule:nonzero;stroke:none"
               d="m 676.648,967.289 c 0,-14.687 -11.906,-26.598 -26.593,-26.598 -14.696,0 -26.602,11.911 -26.602,26.598 0,14.691 11.906,26.602 26.602,26.602 14.687,0 26.593,-11.911 26.593,-26.602" /><path
               id="path488"
               style="fill:#79561e;fill-opacity:1;fill-rule:nonzero;stroke:none"
               d="m 783.504,1038.52 c 0,-14.69 -11.914,-26.6 -26.602,-26.6 -14.687,0 -26.601,11.91 -26.601,26.6 0,14.69 11.914,26.61 26.601,26.61 14.688,0 26.602,-11.92 26.602,-26.61" /><path
               id="path490"
               style="fill:#79561e;fill-opacity:1;fill-rule:nonzero;stroke:none"
               d="m 712.273,1038.52 c 0,-14.69 -11.914,-26.6 -26.601,-26.6 -14.699,0 -26.602,11.91 -26.602,26.6 0,14.69 11.903,26.61 26.602,26.61 14.687,0 26.601,-11.92 26.601,-26.61" /></g></g></g><g
         id="g492"><g
           clip-path="url(#clipPath498)"
           id="g494"><g
             clip-path="url(#clipPath504)"
             id="g500"><path
               id="path506"
               style="fill:#79561e;fill-opacity:1;fill-rule:nonzero;stroke:none"
               d="m 783.504,753.59 c 0,-14.692 -11.914,-26.602 -26.602,-26.602 -14.687,0 -26.601,11.91 -26.601,26.602 0,14.691 11.914,26.601 26.601,26.601 14.688,0 26.602,-11.91 26.602,-26.601" /><path
               id="path508"
               style="fill:#79561e;fill-opacity:1;fill-rule:nonzero;stroke:none"
               d="m 712.273,753.59 c 0,-14.692 -11.914,-26.602 -26.601,-26.602 -14.699,0 -26.602,11.91 -26.602,26.602 0,14.691 11.903,26.601 26.602,26.601 14.687,0 26.601,-11.91 26.601,-26.601" /><path
               id="path510"
               style="fill:#79561e;fill-opacity:1;fill-rule:nonzero;stroke:none"
               d="m 819.117,824.82 c 0,-14.691 -11.902,-26.601 -26.601,-26.601 -14.688,0 -26.602,11.91 -26.602,26.601 0,14.692 11.914,26.602 26.602,26.602 14.699,0 26.601,-11.91 26.601,-26.602" /><path
               id="path512"
               style="fill:#79561e;fill-opacity:1;fill-rule:nonzero;stroke:none"
               d="m 747.887,824.82 c 0,-14.691 -11.914,-26.601 -26.602,-26.601 -14.695,0 -26.601,11.91 -26.601,26.601 0,14.692 11.906,26.602 26.601,26.602 14.688,0 26.602,-11.91 26.602,-26.602" /><path
               id="path514"
               style="fill:#79561e;fill-opacity:1;fill-rule:nonzero;stroke:none"
               d="m 676.648,824.82 c 0,-14.691 -11.906,-26.601 -26.593,-26.601 -14.696,0 -26.602,11.91 -26.602,26.601 0,14.692 11.906,26.602 26.602,26.602 14.687,0 26.593,-11.91 26.593,-26.602" /><path
               id="path516"
               style="fill:#79561e;fill-opacity:1;fill-rule:nonzero;stroke:none"
               d="m 783.504,896.059 c 0,-14.688 -11.914,-26.598 -26.602,-26.598 -14.687,0 -26.601,11.91 -26.601,26.598 0,14.687 11.914,26.593 26.601,26.593 14.688,0 26.602,-11.906 26.602,-26.593" /><path
               id="path518"
               style="fill:#79561e;fill-opacity:1;fill-rule:nonzero;stroke:none"
               d="m 712.273,896.059 c 0,-14.688 -11.914,-26.598 -26.601,-26.598 -14.699,0 -26.602,11.91 -26.602,26.598 0,14.687 11.903,26.593 26.602,26.593 14.687,0 26.601,-11.906 26.601,-26.593" /></g></g></g><g
         id="g520"><g
           clip-path="url(#clipPath526)"
           id="g522"><g
             clip-path="url(#clipPath532)"
             id="g528"><path
               id="path534"
               style="fill:#79561e;fill-opacity:1;fill-rule:nonzero;stroke:none"
               d="m 641.031,1323.46 c 0,-14.69 -11.902,-26.6 -26.601,-26.6 -14.688,0 -26.602,11.91 -26.602,26.6 0,14.69 11.914,26.6 26.602,26.6 14.699,0 26.601,-11.91 26.601,-26.6" /></g></g></g><g
         id="g536"><g
           clip-path="url(#clipPath542)"
           id="g538"><g
             clip-path="url(#clipPath548)"
             id="g544"><path
               id="path550"
               style="fill:#79561e;fill-opacity:1;fill-rule:nonzero;stroke:none"
               d="m 641.031,1180.99 c 0,-14.69 -11.902,-26.6 -26.601,-26.6 -14.688,0 -26.602,11.91 -26.602,26.6 0,14.69 11.914,26.6 26.602,26.6 14.699,0 26.601,-11.91 26.601,-26.6" /><path
               id="path552"
               style="fill:#79561e;fill-opacity:1;fill-rule:nonzero;stroke:none"
               d="m 569.801,1180.99 c 0,-14.69 -11.914,-26.6 -26.602,-26.6 -14.687,0 -26.601,11.91 -26.601,26.6 0,14.69 11.914,26.6 26.601,26.6 14.688,0 26.602,-11.91 26.602,-26.6" /><path
               id="path554"
               style="fill:#79561e;fill-opacity:1;fill-rule:nonzero;stroke:none"
               d="m 676.648,1252.22 c 0,-14.69 -11.906,-26.59 -26.593,-26.59 -14.696,0 -26.602,11.9 -26.602,26.59 0,14.7 11.906,26.6 26.602,26.6 14.687,0 26.593,-11.9 26.593,-26.6" /><path
               id="path556"
               style="fill:#79561e;fill-opacity:1;fill-rule:nonzero;stroke:none"
               d="m 605.418,1252.22 c 0,-14.69 -11.906,-26.59 -26.602,-26.59 -14.687,0 -26.601,11.9 -26.601,26.59 0,14.7 11.914,26.6 26.601,26.6 14.696,0 26.602,-11.9 26.602,-26.6" /><path
               id="path558"
               style="fill:#79561e;fill-opacity:1;fill-rule:nonzero;stroke:none"
               d="m 534.188,1252.22 c 0,-14.69 -11.915,-26.59 -26.602,-26.59 -14.688,0 -26.602,11.9 -26.602,26.59 0,14.7 11.914,26.6 26.602,26.6 14.687,0 26.602,-11.9 26.602,-26.6" /><path
               id="path560"
               style="fill:#79561e;fill-opacity:1;fill-rule:nonzero;stroke:none"
               d="m 641.031,1323.46 c 0,-14.69 -11.902,-26.6 -26.601,-26.6 -14.688,0 -26.602,11.91 -26.602,26.6 0,14.69 11.914,26.6 26.602,26.6 14.699,0 26.601,-11.91 26.601,-26.6" /><path
               id="path562"
               style="fill:#79561e;fill-opacity:1;fill-rule:nonzero;stroke:none"
               d="m 569.801,1323.46 c 0,-14.69 -11.914,-26.6 -26.602,-26.6 -14.687,0 -26.601,11.91 -26.601,26.6 0,14.69 11.914,26.6 26.601,26.6 14.688,0 26.602,-11.91 26.602,-26.6" /></g></g></g><g
         id="g564"><g
           clip-path="url(#clipPath570)"
           id="g566"><g
             clip-path="url(#clipPath576)"
             id="g572"><path
               id="path578"
               style="fill:#79561e;fill-opacity:1;fill-rule:nonzero;stroke:none"
               d="m 641.031,1038.52 c 0,-14.69 -11.902,-26.6 -26.601,-26.6 -14.688,0 -26.602,11.91 -26.602,26.6 0,14.69 11.914,26.61 26.602,26.61 14.699,0 26.601,-11.92 26.601,-26.61" /><path
               id="path580"
               style="fill:#79561e;fill-opacity:1;fill-rule:nonzero;stroke:none"
               d="m 569.801,1038.52 c 0,-14.69 -11.914,-26.6 -26.602,-26.6 -14.687,0 -26.601,11.91 -26.601,26.6 0,14.69 11.914,26.61 26.601,26.61 14.688,0 26.602,-11.92 26.602,-26.61" /><path
               id="path582"
               style="fill:#79561e;fill-opacity:1;fill-rule:nonzero;stroke:none"
               d="m 676.648,1109.76 c 0,-14.69 -11.906,-26.6 -26.593,-26.6 -14.696,0 -26.602,11.91 -26.602,26.6 0,14.69 11.906,26.6 26.602,26.6 14.687,0 26.593,-11.91 26.593,-26.6" /><path
               id="path584"
               style="fill:#79561e;fill-opacity:1;fill-rule:nonzero;stroke:none"
               d="m 605.418,1109.76 c 0,-14.69 -11.906,-26.6 -26.602,-26.6 -14.687,0 -26.601,11.91 -26.601,26.6 0,14.69 11.914,26.6 26.601,26.6 14.696,0 26.602,-11.91 26.602,-26.6" /><path
               id="path586"
               style="fill:#79561e;fill-opacity:1;fill-rule:nonzero;stroke:none"
               d="m 534.188,1109.76 c 0,-14.69 -11.915,-26.6 -26.602,-26.6 -14.688,0 -26.602,11.91 -26.602,26.6 0,14.69 11.914,26.6 26.602,26.6 14.687,0 26.602,-11.91 26.602,-26.6" /><path
               id="path588"
               style="fill:#79561e;fill-opacity:1;fill-rule:nonzero;stroke:none"
               d="m 641.031,1180.99 c 0,-14.69 -11.902,-26.6 -26.601,-26.6 -14.688,0 -26.602,11.91 -26.602,26.6 0,14.69 11.914,26.6 26.602,26.6 14.699,0 26.601,-11.91 26.601,-26.6" /><path
               id="path590"
               style="fill:#79561e;fill-opacity:1;fill-rule:nonzero;stroke:none"
               d="m 569.801,1180.99 c 0,-14.69 -11.914,-26.6 -26.602,-26.6 -14.687,0 -26.601,11.91 -26.601,26.6 0,14.69 11.914,26.6 26.601,26.6 14.688,0 26.602,-11.91 26.602,-26.6" /></g></g></g><g
         id="g592"><g
           clip-path="url(#clipPath598)"
           id="g594"><g
             clip-path="url(#clipPath604)"
             id="g600"><path
               id="path606"
               style="fill:#79561e;fill-opacity:1;fill-rule:nonzero;stroke:none"
               d="m 641.031,896.059 c 0,-14.688 -11.902,-26.598 -26.601,-26.598 -14.688,0 -26.602,11.91 -26.602,26.598 0,14.687 11.914,26.593 26.602,26.593 14.699,0 26.601,-11.906 26.601,-26.593" /><path
               id="path608"
               style="fill:#79561e;fill-opacity:1;fill-rule:nonzero;stroke:none"
               d="m 569.801,896.059 c 0,-14.688 -11.914,-26.598 -26.602,-26.598 -14.687,0 -26.601,11.91 -26.601,26.598 0,14.687 11.914,26.593 26.601,26.593 14.688,0 26.602,-11.906 26.602,-26.593" /><path
               id="path610"
               style="fill:#79561e;fill-opacity:1;fill-rule:nonzero;stroke:none"
               d="m 676.648,967.289 c 0,-14.687 -11.906,-26.598 -26.593,-26.598 -14.696,0 -26.602,11.911 -26.602,26.598 0,14.691 11.906,26.602 26.602,26.602 14.687,0 26.593,-11.911 26.593,-26.602" /><path
               id="path612"
               style="fill:#79561e;fill-opacity:1;fill-rule:nonzero;stroke:none"
               d="m 605.418,967.289 c 0,-14.687 -11.906,-26.598 -26.602,-26.598 -14.687,0 -26.601,11.911 -26.601,26.598 0,14.691 11.914,26.602 26.601,26.602 14.696,0 26.602,-11.911 26.602,-26.602" /><path
               id="path614"
               style="fill:#79561e;fill-opacity:1;fill-rule:nonzero;stroke:none"
               d="m 534.188,967.289 c 0,-14.687 -11.915,-26.598 -26.602,-26.598 -14.688,0 -26.602,11.911 -26.602,26.598 0,14.691 11.914,26.602 26.602,26.602 14.687,0 26.602,-11.911 26.602,-26.602" /><path
               id="path616"
               style="fill:#79561e;fill-opacity:1;fill-rule:nonzero;stroke:none"
               d="m 641.031,1038.52 c 0,-14.69 -11.902,-26.6 -26.601,-26.6 -14.688,0 -26.602,11.91 -26.602,26.6 0,14.69 11.914,26.61 26.602,26.61 14.699,0 26.601,-11.92 26.601,-26.61" /><path
               id="path618"
               style="fill:#79561e;fill-opacity:1;fill-rule:nonzero;stroke:none"
               d="m 569.801,1038.52 c 0,-14.69 -11.914,-26.6 -26.602,-26.6 -14.687,0 -26.601,11.91 -26.601,26.6 0,14.69 11.914,26.61 26.601,26.61 14.688,0 26.602,-11.92 26.602,-26.61" /></g></g></g><g
         id="g620"><g
           clip-path="url(#clipPath626)"
           id="g622"><g
             clip-path="url(#clipPath632)"
             id="g628"><path
               id="path634"
               style="fill:#79561e;fill-opacity:1;fill-rule:nonzero;stroke:none"
               d="m 641.031,753.59 c 0,-14.692 -11.902,-26.602 -26.601,-26.602 -14.688,0 -26.602,11.91 -26.602,26.602 0,14.691 11.914,26.601 26.602,26.601 14.699,0 26.601,-11.91 26.601,-26.601" /><path
               id="path636"
               style="fill:#79561e;fill-opacity:1;fill-rule:nonzero;stroke:none"
               d="m 569.801,753.59 c 0,-14.692 -11.914,-26.602 -26.602,-26.602 -14.687,0 -26.601,11.91 -26.601,26.602 0,14.691 11.914,26.601 26.601,26.601 14.688,0 26.602,-11.91 26.602,-26.601" /><path
               id="path638"
               style="fill:#79561e;fill-opacity:1;fill-rule:nonzero;stroke:none"
               d="m 676.648,824.82 c 0,-14.691 -11.906,-26.601 -26.593,-26.601 -14.696,0 -26.602,11.91 -26.602,26.601 0,14.692 11.906,26.602 26.602,26.602 14.687,0 26.593,-11.91 26.593,-26.602" /><path
               id="path640"
               style="fill:#79561e;fill-opacity:1;fill-rule:nonzero;stroke:none"
               d="m 605.418,824.82 c 0,-14.691 -11.906,-26.601 -26.602,-26.601 -14.687,0 -26.601,11.91 -26.601,26.601 0,14.692 11.914,26.602 26.601,26.602 14.696,0 26.602,-11.91 26.602,-26.602" /><path
               id="path642"
               style="fill:#79561e;fill-opacity:1;fill-rule:nonzero;stroke:none"
               d="m 534.188,824.82 c 0,-14.691 -11.915,-26.601 -26.602,-26.601 -14.688,0 -26.602,11.91 -26.602,26.601 0,14.692 11.914,26.602 26.602,26.602 14.687,0 26.602,-11.91 26.602,-26.602" /><path
               id="path644"
               style="fill:#79561e;fill-opacity:1;fill-rule:nonzero;stroke:none"
               d="m 641.031,896.059 c 0,-14.688 -11.902,-26.598 -26.601,-26.598 -14.688,0 -26.602,11.91 -26.602,26.598 0,14.687 11.914,26.593 26.602,26.593 14.699,0 26.601,-11.906 26.601,-26.593" /><path
               id="path646"
               style="fill:#79561e;fill-opacity:1;fill-rule:nonzero;stroke:none"
               d="m 569.801,896.059 c 0,-14.688 -11.914,-26.598 -26.602,-26.598 -14.687,0 -26.601,11.91 -26.601,26.598 0,14.687 11.914,26.593 26.601,26.593 14.688,0 26.602,-11.906 26.602,-26.593" /></g></g></g><g
         id="g648"><g
           clip-path="url(#clipPath654)"
           id="g650"><g
             clip-path="url(#clipPath660)"
             id="g656"><path
               id="path662"
               style="fill:#79561e;fill-opacity:1;fill-rule:nonzero;stroke:none"
               d="m 498.57,1180.99 c 0,-14.69 -11.914,-26.6 -26.601,-26.6 -14.696,0 -26.602,11.91 -26.602,26.6 0,14.69 11.906,26.6 26.602,26.6 14.687,0 26.601,-11.91 26.601,-26.6" /><path
               id="path664"
               style="fill:#79561e;fill-opacity:1;fill-rule:nonzero;stroke:none"
               d="m 534.188,1252.22 c 0,-14.69 -11.915,-26.59 -26.602,-26.59 -14.688,0 -26.602,11.9 -26.602,26.59 0,14.7 11.914,26.6 26.602,26.6 14.687,0 26.602,-11.9 26.602,-26.6" /></g></g></g><g
         id="g666"><g
           clip-path="url(#clipPath672)"
           id="g668"><g
             clip-path="url(#clipPath678)"
             id="g674"><path
               id="path680"
               style="fill:#79561e;fill-opacity:1;fill-rule:nonzero;stroke:none"
               d="m 498.57,1038.52 c 0,-14.69 -11.914,-26.6 -26.601,-26.6 -14.696,0 -26.602,11.91 -26.602,26.6 0,14.69 11.906,26.61 26.602,26.61 14.687,0 26.601,-11.92 26.601,-26.61" /><path
               id="path682"
               style="fill:#79561e;fill-opacity:1;fill-rule:nonzero;stroke:none"
               d="m 534.188,1109.76 c 0,-14.69 -11.915,-26.6 -26.602,-26.6 -14.688,0 -26.602,11.91 -26.602,26.6 0,14.69 11.914,26.6 26.602,26.6 14.687,0 26.602,-11.91 26.602,-26.6" /><path
               id="path684"
               style="fill:#79561e;fill-opacity:1;fill-rule:nonzero;stroke:none"
               d="m 498.57,1180.99 c 0,-14.69 -11.914,-26.6 -26.601,-26.6 -14.696,0 -26.602,11.91 -26.602,26.6 0,14.69 11.906,26.6 26.602,26.6 14.687,0 26.601,-11.91 26.601,-26.6" /></g></g></g><g
         id="g686"><g
           clip-path="url(#clipPath692)"
           id="g688"><g
             clip-path="url(#clipPath698)"
             id="g694"><path
               id="path700"
               style="fill:#79561e;fill-opacity:1;fill-rule:nonzero;stroke:none"
               d="m 498.57,896.059 c 0,-14.688 -11.914,-26.598 -26.601,-26.598 -14.696,0 -26.602,11.91 -26.602,26.598 0,14.687 11.906,26.593 26.602,26.593 14.687,0 26.601,-11.906 26.601,-26.593" /><path
               id="path702"
               style="fill:#79561e;fill-opacity:1;fill-rule:nonzero;stroke:none"
               d="m 534.188,967.289 c 0,-14.687 -11.915,-26.598 -26.602,-26.598 -14.688,0 -26.602,11.911 -26.602,26.598 0,14.691 11.914,26.602 26.602,26.602 14.687,0 26.602,-11.911 26.602,-26.602" /><path
               id="path704"
               style="fill:#79561e;fill-opacity:1;fill-rule:nonzero;stroke:none"
               d="m 498.57,1038.52 c 0,-14.69 -11.914,-26.6 -26.601,-26.6 -14.696,0 -26.602,11.91 -26.602,26.6 0,14.69 11.906,26.61 26.602,26.61 14.687,0 26.601,-11.92 26.601,-26.61" /></g></g></g><g
         id="g706"><g
           clip-path="url(#clipPath712)"
           id="g708"><g
             clip-path="url(#clipPath718)"
             id="g714"><path
               id="path720"
               style="fill:#79561e;fill-opacity:1;fill-rule:nonzero;stroke:none"
               d="m 534.188,824.82 c 0,-14.691 -11.915,-26.601 -26.602,-26.601 -14.688,0 -26.602,11.91 -26.602,26.601 0,14.692 11.914,26.602 26.602,26.602 14.687,0 26.602,-11.91 26.602,-26.602" /><path
               id="path722"
               style="fill:#79561e;fill-opacity:1;fill-rule:nonzero;stroke:none"
               d="m 498.57,896.059 c 0,-14.688 -11.914,-26.598 -26.601,-26.598 -14.696,0 -26.602,11.91 -26.602,26.598 0,14.687 11.906,26.593 26.602,26.593 14.687,0 26.601,-11.906 26.601,-26.593" /></g></g></g><path
         id="path750"
         style="fill:url(#pattern748);fill-opacity:1;fill-rule:nonzero;stroke:none"
         d="m 487.977,801.199 185.015,-32.5 218.207,32.813 182.681,128.086 -2.33,453.812 -25.66,24 -322.535,-8.94 -235.378,-168.31 z m 184.961,-37.949 -0.442,0.07 -189.91,33.36 v 436.26 l 1.133,0.8 237.84,170.07 0.82,0.02 325.591,9.03 28.95,-27.11 0.01,-1.15 2.36,-457.795 -1.16,-0.813 L 892.621,796.281 672.938,763.25" /><path
         id="path752"
         style="fill:#4b3319;fill-opacity:1;fill-rule:nonzero;stroke:none"
         d="m 497.781,1226.54 -25,10.02 c 18.477,46.11 205.86,160.52 244.395,176.97 42.773,18.27 310.344,8.49 346.314,0.78 11.24,-2.41 17.9,-11.29 16.96,-22.62 -3.31,-39.57 -128.977,-145.32 -187.63,-147.93 l -1.191,26.91 c 46.855,2.08 146.361,89.81 160.351,118.35 -56.554,8.64 -292.421,13.33 -324.242,-0.27 -47.593,-20.32 -217.429,-130.93 -229.957,-162.21" /><path
         id="path754"
         style="fill:#4b3319;fill-opacity:1;fill-rule:nonzero;stroke:none"
         d="m 498.375,1226.03 c -13.895,-189.82 -18.641,-397.221 -2.566,-418.69 23.765,-23.988 332.304,-17.512 383.222,-0.899 0.282,5.778 0.789,14.899 1.543,28.52 16.883,304.079 11.903,392.079 4.18,410.359 -18.145,3.74 -99.367,8.58 -195.938,6.22 -129.621,-3.17 -179.375,-16.71 -190.441,-25.51 z M 649.129,764.07 c -82.832,0 -158.488,6.602 -174.367,26.461 -30.282,37.848 -9.883,347.889 -2.91,442.019 l 0.253,3.53 1.973,2.94 c 36.008,54.03 391.719,42.48 422.871,30.81 15.957,-5.99 34.043,-12.77 10.52,-436.361 -0.996,-17.91 -1.778,-32.047 -1.778,-34.528 0,-7.652 -4.98,-13.269 -14.804,-16.722 C 868.98,774.539 753.375,764.07 649.129,764.07" /><path
         id="path756"
         style="fill:#4b3319;fill-opacity:1;fill-rule:nonzero;stroke:none"
         d="m 898.766,787.172 -13.086,23.539 c 80.73,44.84 171.66,103.656 177.79,120.492 9.5,47.418 25.29,431.487 -5.92,457.217 0.2,-0.16 1.02,-0.63 2.21,-0.72 l 1.82,26.88 c 4.79,-0.32 11.81,-2.41 17.98,-10.49 44.56,-58.3 13.5,-462.25 10.23,-478.539 -2.73,-13.578 -31.18,-49.602 -191.024,-138.379" /><path
         id="path758"
         style="fill:#ffffff;fill-opacity:1;fill-rule:nonzero;stroke:none"
         d="m 5706.61,1445.44 c 7.17,0 10.63,3.69 10.63,9.24 0,5.55 -3.23,9.47 -10.4,9.47 h -15.02 v -18.71 z m -24.94,27.03 h 27.25 c 11.1,0 18.49,-6.7 18.49,-16.63 0,-6.94 -3.47,-12.25 -11.09,-14.33 v -0.23 c 6.01,-1.62 8.77,-5.32 9.24,-12.94 0.92,-8.78 0.92,-14.32 2.54,-15.25 v -0.46 h -9.94 c -1.61,0.69 -2.07,6.46 -2.54,13.63 -0.23,7.4 -3.93,11.32 -11.79,11.32 h -12.01 v -24.95 h -10.15 z m 67.46,-30.73 c 0,27.96 -19.18,48.52 -45.99,48.52 -26.8,0 -45.97,-20.56 -45.97,-48.52 0,-28.19 19.17,-48.52 45.97,-48.52 26.81,0 45.99,20.33 45.99,48.52 z m -100.73,0 c 0,32.12 24.25,55.91 54.74,55.91 30.51,0 54.77,-23.79 54.77,-55.91 0,-32.34 -24.26,-55.91 -54.77,-55.91 -30.49,0 -54.74,23.57 -54.74,55.91" /></g></g></svg>